<?xml version="1.0"?>
<svg version="1.1" xmlns="http://www.w3.org/2000/svg" xmlns:xlink="http://www.w3.org/1999/xlink" width="698.803" height="112.18">
    <desc iVinci="yes" version="4.6" gridStep="20" showGrid="no" snapToGrid="no" codePlatform="0"/>
    <g id="Layer1" name="Layer 1" opacity="1">
        <g id="Shape1">
            <desc shapeID="1" type="0" basicInfo-basicType="0" basicInfo-roundedRectRadius="12" basicInfo-polygonSides="6" basicInfo-starPoints="5" bounding="rect(-80.1736,-54.2257,160.347,108.451)" text="" font-familyName="" font-pixelSize="20" font-bold="0" font-underline="0" font-alignment="1" strokeStyle="0" markerStart="0" markerEnd="0" shadowEnabled="0" shadowOffsetX="0" shadowOffsetY="2" shadowBlur="4" shadowOpacity="160" blurEnabled="0" blurRadius="4" transform="matrix(1,0,0,1,103.674,54.7257)" pers-center="0,0" pers-size="0,0" pers-start="0,0" pers-end="0,0" locked="0" mesh="" flag=""/>
            <path id="shapePath1" d="M176.327,30.6708 C170.968,36.6243 147.889,44.1754 144.912,44.1754 L119.613,44.1754 C115.414,44.1754 109.091,44.9995 106.114,46.8886 C106.456,47.1914 106.798,47.4941 107.129,47.8024 C109.416,49.927 114.764,52.9206 119.495,52.9206 C121.721,52.9206 123.548,52.2759 125.101,50.9361 C131.705,45.291 135.135,44.6295 137.126,44.6295 C139.486,44.6295 141.515,45.7114 142.709,47.6062 C144.951,51.1155 143.303,55.7067 141.621,59.3057 C137.596,67.849 124.479,77.0819 110.257,77.0819 C110.245,77.0819 110.245,77.0819 110.234,77.0819 C108.25,77.0819 106.304,76.8969 104.443,76.5269 L104.443,94.7516 C104.443,98.9112 110.234,108.951 127.803,108.951 C145.372,108.951 149.974,88.204 149.974,84.633 L149.974,59.3393 C162.475,52.786 175.268,49.2207 181.39,37.5044 C187.147,26.4945 181.681,24.7174 176.327,30.6708 M137.03,57.1642 C141.493,47.6398 136.733,47.6398 128.397,54.7817 C120.061,61.9236 107.852,55.3703 103.687,51.5023 C99.5214,47.6398 95.3562,44.6631 87.9116,44.9602 C80.467,45.2573 62.9094,44.0577 52.7795,41.6808 C42.6609,39.2983 25.3388,24.8631 23.9093,28.5911 C22.4181,32.4591 25.0921,35.1387 30.4569,41.6808 C35.8106,48.2341 58.9068,57.2539 58.9068,57.2539 C58.9068,57.2539 58.9068,76.611 58.9068,84.6442 C58.9068,92.6887 75.573,104.881 84.2005,104.881 C92.8279,104.881 99.3812,98.928 99.3812,94.7572 L99.3812,69.4635 C113.671,76.9193 132.568,66.6942 137.03,57.1642 M128.061,35.9123 C137.838,35.9123 145.77,27.9856 145.77,18.209 C145.77,8.42671 137.838,0.5 128.061,0.5 C118.284,0.5 110.358,8.42671 110.358,18.209 C110.358,27.9856 118.284,35.9123 128.061,35.9123 M81.4032,35.9123 C91.1798,35.9123 99.1065,27.9856 99.1065,18.209 C99.1065,8.42671 91.1798,0.5 81.4032,0.5 C71.6209,0.5 63.6942,8.42671 63.6942,18.209 C63.6942,27.9856 71.6153,35.9123 81.4032,35.9123 Z" style="stroke:#ffffff;stroke-opacity:1;stroke-width:1;stroke-linejoin:round;stroke-miterlimit:2;stroke-linecap:butt;fill-rule:nonzero;fill:#dadada;fill-opacity:1;"/>
        </g>
        <g id="Shape2">
            <desc shapeID="2" type="0" basicInfo-basicType="0" basicInfo-roundedRectRadius="12" basicInfo-polygonSides="6" basicInfo-starPoints="5" bounding="rect(-229.448,-44.7535,458.896,89.507)" text="2 PLAYERS" font-familyName="Marker Felt" font-pixelSize="103" font-bold="0" font-underline="0" font-alignment="0" strokeStyle="0" markerStart="0" markerEnd="0" shadowEnabled="0" shadowOffsetX="0" shadowOffsetY="2" shadowBlur="4" shadowOpacity="160" blurEnabled="0" blurRadius="4" transform="matrix(1,0,0,1,430.232,53.6391)" pers-center="0,0" pers-size="0,0" pers-start="0,0" pers-end="0,0" locked="0" mesh="" flag=""/>
            <path id="shapePath2" d="M255.455,82.2216 C256.177,83.7323 256.358,85.2086 255.998,86.6506 C255.502,88.642 254.087,90.3243 251.753,91.6976 C249.419,93.071 247.222,93.7576 245.162,93.7576 C244.201,93.7576 242.811,93.5516 240.991,93.1396 C239.445,92.7276 238.355,92.556 237.72,92.6246 C234.63,92.35 229.935,92.865 223.636,94.1696 C215.603,95.8176 211.303,96.676 210.737,96.7446 C208.831,96.9506 206.711,96.5043 204.376,95.4056 C201.611,94.101 200.442,92.453 200.87,90.4616 C201.161,89.0196 202.285,87.818 204.241,86.8566 C206.592,85.6893 208.076,84.6936 208.694,83.8696 C214.956,78.5823 222.505,71.3036 231.339,62.0336 C244.84,47.8196 252.42,37.3823 254.081,30.7216 C254.697,28.2496 254.456,26.327 253.356,24.9536 C253.236,24.885 253.073,24.8506 252.867,24.8506 C251.768,24.8506 249.349,26.1553 245.608,28.7646 C242.279,31.0993 240.195,32.713 239.354,33.6056 C238.462,34.155 237.476,35.494 236.396,37.6226 C235.453,39.4766 234.072,40.747 232.252,41.4336 C231.72,41.6396 231.111,41.7426 230.424,41.7426 C228.364,41.7426 226.432,40.953 224.629,39.3736 C222.671,37.5883 221.828,35.597 222.101,33.3996 C222.238,32.301 223.679,30.653 226.424,28.4556 C229.169,26.2583 232.035,24.4043 235.021,22.8936 C244.749,14.997 252.317,11.083 257.724,11.1516 C267.767,11.3576 271.513,16.5763 268.962,26.8076 C266.925,34.979 261.429,44.764 252.476,56.1626 C244.003,67.012 235.4,75.6296 226.666,82.0156 C228.657,81.741 234.562,80.6423 244.38,78.7196 C247.693,78.1016 249.28,77.7926 249.143,77.7926 C251.89,77.7926 253.994,79.269 255.455,82.2216 M347.718,17.0226 C348.371,18.5333 348.381,20.559 347.748,23.0996 C346.258,29.0736 340.702,38.275 331.08,50.7036 C321.012,63.819 313.815,70.3766 309.489,70.3766 C308.39,70.3766 307.721,69.7586 307.479,68.5226 C306.88,70.102 306.28,72.0933 305.681,74.4966 C304.654,78.6166 303.713,83.3546 302.858,88.7106 C302.738,89.1913 302.713,89.981 302.782,91.0796 C302.852,92.1783 302.818,93.0023 302.681,93.5516 C302.356,94.8563 301.189,95.955 299.181,96.8476 C298.254,97.2596 297.104,97.4656 295.731,97.4656 C293.465,97.4656 291.465,96.9506 289.73,95.9206 C287.738,94.822 286.793,93.38 286.895,91.5946 C286.946,91.114 287.014,90.702 287.1,90.3586 C287.357,89.3286 287.953,88.3845 288.888,87.5261 C289.823,86.6678 290.325,86.1013 290.393,85.8266 L305.18,19.0826 C305.232,18.8766 305.231,18.4646 305.179,17.8466 C305.127,17.2286 305.144,16.748 305.23,16.4046 C305.538,15.1686 306.67,14.2073 308.627,13.5206 C310.137,12.9713 311.648,12.6966 313.158,12.6966 C313.639,12.6966 315.51,12.9026 318.772,13.3146 C319.184,13.3146 321.411,12.5765 325.453,11.1001 C329.495,9.62379 332.923,8.88562 335.739,8.88562 C341.232,8.88562 345.225,11.598 347.718,17.0226 M331.344,21.1426 C329.696,21.1426 327.366,22.0181 324.354,23.7691 C321.343,25.5201 318.593,27.5286 316.105,29.7946 L310.611,53.4846 C314.197,51.2186 318.61,46.6695 323.85,39.8371 C329.09,33.0048 332.155,27.8033 333.045,24.2326 C333.559,22.1726 332.992,21.1426 331.344,21.1426 M380.655,79.0286 C380.862,79.8526 380.837,80.7796 380.58,81.8096 C380.152,83.5263 379.209,85.1743 377.751,86.7536 C376.293,88.333 374.795,89.3801 373.259,89.8951 C371.723,90.4101 369.651,90.6676 367.041,90.6676 C364.432,90.6676 362.501,90.8393 361.248,91.1826 C359.995,91.526 358.391,92.5903 356.435,94.3756 C354.771,95.8176 352.265,96.779 348.918,97.2596 C346.858,97.5343 345.003,96.8476 343.354,95.1996 C341.705,93.5516 340.803,91.526 340.646,89.1226 C340.629,88.642 340.672,88.1956 340.774,87.7836 C340.997,86.891 341.743,85.8953 343.013,84.7966 C344.282,83.698 344.985,82.7366 345.122,81.9126 L356.359,19.4946 C356.427,19.22 356.225,18.5848 355.752,17.5891 C355.28,16.5935 355.129,15.7523 355.3,15.0656 C355.54,14.1043 356.286,13.1773 357.538,12.2846 C359.306,10.98 361.528,10.3276 364.206,10.3276 C366.472,10.3276 368.533,10.8083 370.387,11.7696 C372.242,12.731 373.281,13.864 373.505,15.1686 C373.66,15.924 373.669,16.5763 373.532,17.1256 C373.378,17.7436 372.915,18.3616 372.143,18.9796 C371.371,19.5976 370.951,20.1813 370.883,20.7306 L360.415,77.5866 L367.211,75.1146 C368.67,74.4966 370.141,73.8958 371.626,73.3121 C373.111,72.7285 374.299,72.4366 375.192,72.4366 C377.664,72.4366 379.485,74.634 380.655,79.0286 M442.287,73.8786 C441.584,74.7713 440.383,75.3206 438.683,75.5266 C438.546,75.5266 437.053,75.5953 434.203,75.7326 C433.913,78.8226 434.74,82.668 436.683,87.2686 C438.143,88.5733 438.607,90.29 438.077,92.4186 C437.238,95.7833 434.758,97.4656 430.638,97.4656 C426.724,97.4656 424.295,96.47 423.349,94.4786 C423.04,93.792 422.962,92.865 423.115,91.6976 C423.304,90.9423 423.466,90.1526 423.603,89.3286 C423.139,88.7106 422.278,84.728 421.02,77.3806 C415.184,78.2046 407.958,79.372 399.341,80.8826 C398.02,82.874 396.409,85.758 394.506,89.5346 C394.472,90.2213 394.378,90.8736 394.224,91.4916 C393.762,93.3456 392.788,94.7705 391.304,95.7661 C389.82,96.7618 388.219,97.2596 386.503,97.2596 C384.58,97.2596 382.974,96.5386 381.686,95.0966 C380.398,93.6546 379.993,91.9723 380.472,90.0496 C380.9,88.333 382.075,86.788 383.997,85.4146 C395.67,59.2526 407.312,37.6226 418.922,20.5246 C418.99,19.7006 419.127,18.8766 419.332,18.0526 C420.188,14.6193 421.921,12.3533 424.529,11.2546 C425.593,10.8426 426.881,10.6366 428.391,10.6366 C431.275,10.6366 433.567,11.083 435.267,11.9756 C437.431,13.2116 438.205,15.0656 437.589,17.5376 C437.024,19.8036 435.901,21.8293 434.219,23.6146 C432.614,35.288 432.073,48.7466 432.599,63.9906 C433.028,63.922 434.521,63.5786 437.078,62.9606 C438.623,62.5486 439.773,62.3426 440.529,62.3426 C441.421,62.3426 442.091,62.5486 442.537,62.9606 C444.478,64.8146 445.115,67.0806 444.447,69.7586 C444.088,71.2006 443.368,72.574 442.287,73.8786 M419.519,66.0506 C419.43,61.7246 419.648,53.416 420.172,41.1246 C412.643,51.768 407.482,60.9006 404.689,68.5226 L419.519,66.0506 M509.302,17.8466 C508.926,19.9066 507.485,21.8293 504.98,23.6146 C501.891,25.812 499.953,27.5286 499.164,28.7646 L467.318,77.9986 L465.729,88.5046 C465.285,91.6633 465.131,92.968 465.268,92.4186 C464.686,94.7533 462.945,96.367 460.044,97.2596 C458.843,97.6716 457.555,97.8776 456.182,97.8776 C453.161,97.8776 450.774,97.1223 449.022,95.6116 C447.03,93.9636 446.556,91.8693 447.602,89.3286 C448.099,88.1613 449.231,86.6506 450.997,84.7966 C452.644,83.1486 453.57,81.638 453.775,80.2646 L455.57,68.9346 L451.574,23.8206 C451.522,22.928 451.032,21.4516 450.104,19.3916 C449.433,17.675 449.226,16.3016 449.483,15.2716 C449.654,14.585 449.988,13.9326 450.486,13.3146 C451.807,11.598 454.802,10.7396 459.471,10.7396 C462.492,10.7396 464.321,10.98 464.956,11.4606 C466.863,12.9026 467.666,14.6365 467.367,16.6621 C467.068,18.6878 466.782,20.662 466.509,22.5846 L468.692,52.6606 L489.373,20.1126 C491.517,16.748 492.901,14.6365 493.527,13.7781 C494.153,12.9198 495.342,12.1473 497.092,11.4606 C498.396,10.9113 499.77,10.6366 501.212,10.6366 C503.684,10.6366 505.744,11.3233 507.393,12.6966 C509.042,14.07 509.678,15.7866 509.302,17.8466 M552.508,22.5846 C550.603,23.8893 548.415,24.5416 545.943,24.5416 C544.913,24.5416 543.737,24.4386 542.415,24.2326 C540.27,24.8506 538.33,25.4686 536.597,26.0866 C532.392,27.5286 529.543,28.7646 528.05,29.7946 C525.858,36.936 523.82,45.1073 521.938,54.3086 C522.419,54.034 523.517,53.7593 525.234,53.4846 C526.417,52.0426 528.005,51.3216 529.996,51.3216 C531.987,51.3216 534.065,52.283 536.229,54.2056 C538.394,56.1283 539.245,58.0166 538.782,59.8706 C538.663,60.3513 538.44,60.832 538.114,61.3126 C536.776,63.3726 535.181,64.6773 533.327,65.2266 C532.211,65.57 530.679,65.6558 528.731,65.4841 C526.782,65.3125 525.499,65.364 524.881,65.6386 C523.114,66.394 520.968,67.2866 518.446,68.3166 C516.905,74.4966 516.118,78.4793 516.085,80.2646 C519.14,79.578 521.749,78.754 523.911,77.7926 C524.374,77.312 524.829,76.8656 525.275,76.4536 C526.15,75.6983 527.463,75.3893 529.214,75.5266 C531.102,75.664 532.82,76.7626 534.366,78.8226 C535.913,80.8826 536.42,82.977 535.89,85.1056 C535.427,86.9596 534.295,88.333 532.493,89.2256 C530.692,90.1183 527.971,90.4273 524.331,90.1526 L513.442,94.9936 C512.979,95.1996 511.915,95.8863 510.251,97.0536 C508.998,97.9463 507.96,98.3926 507.136,98.3926 C506.861,98.3926 506.561,98.3583 506.235,98.2896 C502.869,97.191 500.284,94.3413 498.478,89.7406 C498.358,89.3973 498.357,88.9853 498.477,88.5046 C498.529,88.2986 499.249,86.9253 500.637,84.3846 C504.864,64.4026 510.034,43.116 516.148,20.5246 C515.838,19.838 515.769,19.1513 515.94,18.4646 C516.505,16.1986 518.959,14.7566 523.302,14.1386 C524.229,14.0013 525.302,14.2416 526.521,14.8596 C527.294,15.3403 528.041,15.7866 528.762,16.1986 L542.098,12.2846 C542.39,12.216 543.282,11.804 544.775,11.0486 C545.805,10.4993 546.903,10.2246 548.071,10.2246 C548.62,10.2246 549.255,10.2933 549.976,10.4306 C551.418,10.7053 552.617,11.8898 553.571,13.9841 C554.525,16.0785 554.771,18.0526 554.309,19.9066 C554.018,21.074 553.417,21.9666 552.508,22.5846 M602.814,88.0926 C602.78,88.5046 602.721,88.8823 602.635,89.2256 C602.121,91.2856 600.487,93.0195 597.733,94.4271 C594.979,95.8348 592.297,96.5386 589.688,96.5386 C588.108,96.5386 586.915,96.2296 586.108,95.6116 C585.524,95.1996 585.124,94.3928 584.909,93.1911 C584.693,91.9895 584.328,91.1826 583.813,90.7706 L564.85,75.5266 L563.415,85.0026 C563.364,85.4833 563.648,86.479 564.267,87.9896 C564.886,89.5003 565.067,90.7706 564.81,91.8006 C564.433,93.3113 563.121,94.719 560.873,96.0236 C559.5,96.8476 557.921,97.2596 556.136,97.2596 C553.595,97.2596 551.397,96.573 549.542,95.1996 C547.482,93.8263 546.476,92.0753 546.526,89.9466 C546.56,89.5346 546.612,89.1913 546.68,88.9166 C546.92,87.9553 547.593,87.1141 548.7,86.3931 C549.806,85.6721 550.437,85.0026 550.591,84.3846 L561.933,25.6746 C562.087,24.782 562.005,23.5975 561.686,22.1211 C561.367,20.6448 561.294,19.5633 561.465,18.8766 C561.91,17.0913 563.437,15.6493 566.046,14.5506 C568.208,13.5893 570.285,13.1086 572.276,13.1086 C573.581,13.1086 574.667,13.2975 575.534,13.6751 C576.401,14.0528 576.908,14.6365 577.054,15.4261 C577.201,16.2158 577.514,16.6106 577.995,16.6106 C578.046,16.6793 580.329,15.924 584.843,14.3446 C590.095,12.5593 594.54,11.6666 598.18,11.6666 C603.467,11.6666 607.262,13.5206 609.565,17.2286 C610.201,18.2586 610.287,19.7006 609.825,21.5546 C608.575,26.5673 603.928,33.64 595.883,42.7726 C588.25,51.356 580.872,58.2226 573.752,63.3726 L595.703,81.9126 C595.755,81.9813 597.266,82.8053 600.237,84.3846 C601.937,85.2773 602.796,86.5133 602.814,88.0926 M591.158,24.1296 C589.648,24.1296 586.885,25.5716 582.87,28.4556 C582.046,29.005 578.915,31.374 573.476,35.5626 L568.673,53.9996 C574.094,49.3303 579.237,44.1288 584.099,38.3951 C588.962,32.6615 591.702,28.5586 592.318,26.0866 C592.644,24.782 592.257,24.1296 591.158,24.1296 M651.52,77.7926 C650.184,83.1486 647.316,87.8351 642.916,91.8521 C638.515,95.8691 633.809,97.8776 628.796,97.8776 C618.702,97.8776 612.484,93.071 610.143,83.4576 C605.832,80.093 603.968,77.2433 604.55,74.9086 C604.841,73.7413 605.801,72.78 607.432,72.0246 C610.624,70.514 613.387,69.7586 615.722,69.7586 C620.803,69.7586 623.449,72.78 623.659,78.8226 C624.072,80.4706 624.519,82.1186 625.001,83.7666 C625.483,85.4146 626.479,86.2386 627.99,86.2386 C632.041,86.2386 634.786,83.3546 636.224,77.5866 C637.508,72.4366 637.446,68.969 636.037,67.1836 C635.401,66.4283 632.499,64.849 627.33,62.4456 C623.209,60.523 620.323,57.227 618.671,52.5576 C617.192,48.3003 616.992,43.8713 618.07,39.2706 C619.851,31.8546 623.348,25.2626 628.563,19.4946 C634.086,13.3146 639.801,10.2246 645.706,10.2246 C652.573,10.2246 656.901,12.9713 658.69,18.4646 C659.894,21.898 660,26.1553 659.007,31.2366 C659.112,33.846 658.899,36.215 658.368,38.3436 C658.026,39.717 657.572,40.85 657.006,41.7426 C655.342,44.2833 653,45.5536 649.979,45.5536 C647.713,45.5536 645.858,44.7296 644.415,43.0816 C642.8,41.2963 642.155,38.79 642.479,35.5626 C642.547,34.464 643.044,33.3653 643.97,32.2666 C644.896,31.168 645.377,30.55 645.411,30.4126 C645.445,30.2753 645.411,30.138 645.307,30.0006 C645.462,29.6573 645.582,29.314 645.667,28.9706 C646.181,26.9106 645.219,25.9493 642.781,26.0866 C640.412,26.224 638.208,27.769 636.167,30.7216 C634.366,33.2623 633.123,36.1806 632.439,39.4766 C631.19,45.3133 633.871,49.9826 640.482,53.4846 C645.703,56.2313 649.112,58.9436 650.711,61.6216 C652.979,65.467 653.249,70.8573 651.52,77.7926 Z" style="stroke:none;fill-rule:nonzero;fill:#dcdcdc;fill-opacity:1;"/>
        </g>
    </g>
</svg>
