<?xml version="1.0"?>
<svg version="1.1" xmlns="http://www.w3.org/2000/svg" xmlns:xlink="http://www.w3.org/1999/xlink" width="800" height="160">
    <desc iVinci="yes" version="4.6" gridStep="20" showGrid="no" snapToGrid="no" codePlatform="0"/>
    <g id="Layer1" name="Layer 1" opacity="1">
        <g id="Shape1">
            <desc shapeID="1" type="0" basicInfo-basicType="0" basicInfo-roundedRectRadius="12" basicInfo-polygonSides="6" basicInfo-starPoints="5" bounding="rect(-54.1085,-49.129,108.217,98.258)" text="" font-familyName="" font-pixelSize="20" font-bold="0" font-underline="0" font-alignment="1" strokeStyle="0" markerStart="0" markerEnd="0" shadowEnabled="0" shadowOffsetX="0" shadowOffsetY="2" shadowBlur="4" shadowOpacity="160" blurEnabled="0" blurRadius="4" transform="matrix(1,0,0,1,235.109,68.0899)" pers-center="0,0" pers-size="0,0" pers-start="0,0" pers-end="0,0" locked="0" mesh="" flag=""/>
            <path id="shapePath1" d="M181,117.219 L237.548,18.9609 C244.716,31.7699 253.409,47.9979 263.633,67.6429 L289.217,116.92 L181,117.219 L181,117.219 M240.234,78.9909 C240.434,80.5849 240.168,82.0119 239.438,83.2709 C238.574,84.7329 237.347,85.4609 235.754,85.4609 C233.763,85.4609 232.236,84.4019 231.175,82.2759 C230.976,81.0149 231.076,79.7879 231.473,78.5919 C232.004,77.1329 232.899,76.2369 234.161,75.9039 C234.559,75.8379 234.957,75.8039 235.356,75.8039 C237.413,75.8059 239.039,76.8689 240.234,78.9909 Z" style="stroke:none;fill-rule:nonzero;fill:#ffffff;fill-opacity:1;"/>
        </g>
        <g id="Shape2">
            <desc shapeID="2" type="0" basicInfo-basicType="0" basicInfo-roundedRectRadius="12" basicInfo-polygonSides="6" basicInfo-starPoints="5" bounding="rect(-46.8495,-49.4951,93.699,98.9901)" text="" font-familyName="" font-pixelSize="20" font-bold="0" font-underline="0" font-alignment="1" strokeStyle="0" markerStart="0" markerEnd="0" shadowEnabled="0" shadowOffsetX="0" shadowOffsetY="2" shadowBlur="4" shadowOpacity="160" blurEnabled="0" blurRadius="4" transform="matrix(1,0,0,1,338.055,67.2921)" pers-center="0,0" pers-size="0,0" pers-start="0,0" pers-end="0,0" locked="0" mesh="" flag=""/>
            <path id="shapePath2" d="M384.904,115.807 C369.371,116.077 353.837,116.314 338.303,116.518 C319.715,116.787 304.016,116.854 291.205,116.721 L291.205,18.0649 C294.921,18.5309 306.635,18.4629 326.347,17.8659 C341.877,17.4679 353.59,18.7959 361.488,21.8489 C372.77,26.1639 379.97,34.5919 383.092,47.1359 C383.156,47.9989 383.191,48.8949 383.191,49.8249 C383.191,59.0509 378.744,67.1159 369.85,74.0179 C367.459,75.8769 364.373,77.4029 360.59,78.5969 C357.271,79.5279 353.95,80.4239 350.633,81.2859 L384.904,115.807 M343.669,48.3299 C343.801,48.7939 343.868,49.2929 343.868,49.8229 C343.868,51.2829 343.402,52.4939 342.475,53.4559 C341.545,54.4179 340.384,54.8989 338.991,54.8989 C336.999,54.8989 335.439,53.8399 334.311,51.7149 C333.847,48.7279 334.71,46.6049 336.9,45.3439 C337.498,45.0789 338.095,44.9449 338.692,44.9449 C341.212,44.9449 342.872,46.0739 343.669,48.3299 M366.349,108.775 C361.509,108.841 354.379,108.64 344.962,108.173 L344.962,107.269 C346.82,107.001 349.607,106.899 353.325,106.969 C357.041,107.035 359.828,106.9 361.687,106.569 L344.962,89.4449 L347.051,89.4479 L366.349,108.775 M374.529,52.2129 C374.33,55.4649 373.135,58.6339 370.946,61.7189 C368.755,64.8059 366.101,67.0449 362.982,68.4389 L354.023,72.4219 L354.023,70.2299 C365.969,66.3819 372.373,60.3739 373.236,52.2119 L374.529,52.2119 L374.529,52.2129 Z" style="stroke:none;fill-rule:nonzero;fill:#ffffff;fill-opacity:1;"/>
        </g>
        <g id="Shape3">
            <desc shapeID="3" type="0" basicInfo-basicType="0" basicInfo-roundedRectRadius="12" basicInfo-polygonSides="6" basicInfo-starPoints="5" bounding="rect(-46.79,-48.333,93.58,96.6661)" text="" font-familyName="" font-pixelSize="20" font-bold="0" font-underline="0" font-alignment="1" strokeStyle="0" markerStart="0" markerEnd="0" shadowEnabled="0" shadowOffsetX="0" shadowOffsetY="2" shadowBlur="4" shadowOpacity="160" blurEnabled="0" blurRadius="4" transform="matrix(1,0,0,1,432.467,67.5919)" pers-center="0,0" pers-size="0,0" pers-start="0,0" pers-end="0,0" locked="0" mesh="" flag=""/>
            <path id="shapePath3" d="M479.257,84.3659 C476.005,93.6589 470.049,101.257 461.388,107.165 C452.728,113.07 443.484,115.99 433.662,115.924 C424.768,115.924 416.473,113.551 408.774,108.806 C401.074,104.061 395.068,97.6399 390.754,89.5429 C387.37,83.1709 385.677,75.7739 385.677,67.3429 C385.677,59.4449 387.203,52.5449 390.257,46.6359 C394.57,38.1399 400.66,31.4539 408.525,26.5759 C416.39,21.6969 424.967,19.2589 434.259,19.2589 C436.914,19.2589 439.569,19.4589 442.224,19.8559 C449.391,20.9849 456.094,23.8059 462.333,28.3159 C468.837,33.0299 473.647,38.7049 476.767,45.3399 C468.339,50.4519 455.695,58.0829 438.839,68.2379 C453.441,74.6789 466.914,80.0539 479.257,84.3659 L479.257,84.3659 M464.724,89.5449 C464.724,91.2709 463.629,93.1629 461.438,95.2189 C459.712,96.8109 457.721,98.1709 455.465,99.3009 L454.569,98.6039 C455.963,97.4759 457.356,96.3139 458.751,95.1199 C460.476,93.6609 461.637,92.1999 462.235,90.7399 C459.115,89.2139 454.833,87.4219 449.393,85.3639 C442.823,82.8429 438.476,81.1169 436.352,80.1889 L436.352,78.5929 L464.724,89.5449 Z" style="stroke:none;fill-rule:nonzero;fill:#ffffff;fill-opacity:1;"/>
        </g>
        <g id="Shape4">
            <desc shapeID="4" type="0" basicInfo-basicType="0" basicInfo-roundedRectRadius="12" basicInfo-polygonSides="6" basicInfo-starPoints="5" bounding="rect(-54.108,-49.129,108.216,98.258)" text="" font-familyName="" font-pixelSize="20" font-bold="0" font-underline="0" font-alignment="1" strokeStyle="0" markerStart="0" markerEnd="0" shadowEnabled="0" shadowOffsetX="0" shadowOffsetY="2" shadowBlur="4" shadowOpacity="160" blurEnabled="0" blurRadius="4" transform="matrix(1,0,0,1,518.831,68.0899)" pers-center="0,0" pers-size="0,0" pers-start="0,0" pers-end="0,0" locked="0" mesh="" flag=""/>
            <path id="shapePath4" d="M464.723,117.219 L521.27,18.9609 C528.437,31.7699 537.131,47.9979 547.354,67.6429 L572.939,116.92 L464.723,117.219 L464.723,117.219 M523.957,78.9909 C524.156,80.5849 523.889,82.0119 523.16,83.2709 C522.296,84.7329 521.07,85.4609 519.476,85.4609 C517.485,85.4609 515.958,84.4019 514.895,82.2759 C514.696,81.0149 514.795,79.7879 515.194,78.5919 C515.724,77.1329 516.621,76.2369 517.882,75.9039 C518.281,75.8379 518.679,75.8039 519.076,75.8039 C521.134,75.8059 522.762,76.8689 523.957,78.9909 M559.598,109.256 L539.187,109.654 L539.187,108.36 L556.212,107.862 C555.48,105.472 553.856,101.987 551.332,97.4089 C548.677,92.5649 546.953,88.9469 546.156,86.5589 L547.35,85.8619 L559.598,109.256 Z" style="stroke:none;fill-rule:nonzero;fill:#ffffff;fill-opacity:1;"/>
        </g>
        <g id="Shape5">
            <desc shapeID="5" type="0" basicInfo-basicType="0" basicInfo-roundedRectRadius="12" basicInfo-polygonSides="6" basicInfo-starPoints="5" bounding="rect(-52.662,-49.6265,105.324,99.253)" text="" font-familyName="" font-pixelSize="20" font-bold="0" font-underline="0" font-alignment="1" strokeStyle="0" markerStart="0" markerEnd="0" shadowEnabled="0" shadowOffsetX="0" shadowOffsetY="2" shadowBlur="4" shadowOpacity="160" blurEnabled="0" blurRadius="4" transform="matrix(1,0,0,1,627.191,67.6914)" pers-center="0,0" pers-size="0,0" pers-start="0,0" pers-end="0,0" locked="0" mesh="" flag=""/>
            <path id="shapePath5" d="M674.48,91.3869 C669.503,101.588 662.001,108.708 651.981,112.749 C644.349,115.795 634.062,117.318 621.119,117.318 C617.601,117.318 612.226,117.184 604.992,116.92 C597.758,116.655 592.381,116.522 588.864,116.522 C583.423,116.522 578.644,116.787 574.529,117.318 L574.828,18.0649 C578.81,18.4629 583.354,18.6629 588.464,18.6629 C591.982,18.6629 597.391,18.5629 604.693,18.3649 C611.993,18.1649 617.436,18.0659 621.018,18.0659 C632.101,18.0659 641.162,19.2589 648.196,21.6419 C657.221,24.6899 664.39,30.0539 669.699,37.7389 C676.47,45.3559 679.853,55.2579 679.853,67.4439 C679.854,76.1219 678.063,84.1029 674.48,91.3869 M634.061,78.5929 C634.194,79.0589 634.261,79.5549 634.261,80.0879 C634.261,81.2819 633.878,82.3609 633.116,83.3229 C632.353,84.2849 631.375,84.8329 630.18,84.9639 C627.391,84.4359 625.666,83.4059 625.003,81.8799 C624.936,81.4149 624.904,80.9839 624.904,80.5859 C624.904,78.2619 625.964,76.5699 628.089,75.5069 C628.487,75.4419 628.886,75.4089 629.284,75.4089 C631.274,75.4089 632.867,76.4699 634.061,78.5929 M672.39,68.8369 C671.393,76.9349 669.069,84.0369 665.421,90.1399 C661.172,97.3089 655.53,102.254 648.495,104.974 C644.578,106.5 641.69,107.529 639.836,108.06 C636.584,108.99 633.529,109.486 630.677,109.555 L630.178,108.36 C645.773,105.638 656.594,99.9629 662.633,91.3369 C666.748,85.4299 669.404,77.9319 670.598,68.8379 L672.39,68.8379 L672.39,68.8369 Z" style="stroke:none;fill-rule:nonzero;fill:#ffffff;fill-opacity:1;"/>
        </g>
        <g id="Shape6">
            <desc shapeID="6" type="0" basicInfo-basicType="0" basicInfo-roundedRectRadius="12" basicInfo-polygonSides="6" basicInfo-starPoints="5" bounding="rect(-48.283,-49.578,96.566,99.156)" text="" font-familyName="" font-pixelSize="20" font-bold="0" font-underline="0" font-alignment="1" strokeStyle="0" markerStart="0" markerEnd="0" shadowEnabled="0" shadowOffsetX="0" shadowOffsetY="2" shadowBlur="4" shadowOpacity="160" blurEnabled="0" blurRadius="4" transform="matrix(1,0,0,1,732.717,67.6429)" pers-center="0,0" pers-size="0,0" pers-start="0,0" pers-end="0,0" locked="0" mesh="" flag=""/>
            <path id="shapePath6" d="M781,63.5609 L726.844,63.5609 C726.246,65.1689 725.948,67.0459 725.948,69.1879 C725.948,71.3319 726.246,73.1389 726.844,74.6129 L746.057,74.6129 L746.057,87.0559 L726.844,87.9519 L726.844,97.7089 L780.702,98.1069 L780.702,117.221 L684.434,117.221 L684.434,18.0649 L780.702,18.0649 L781,63.5609 M732.916,27.5219 L693.792,27.8199 L693.494,60.2749 L692.101,60.2749 L692.101,25.7309 C701.259,25.5999 714.863,25.7659 732.917,26.2289 L732.917,27.5219 L732.916,27.5219 Z" style="stroke:none;fill-rule:nonzero;fill:#ffffff;fill-opacity:1;"/>
        </g>
        <g id="Shape7">
            <desc shapeID="7" type="0" basicInfo-basicType="0" basicInfo-roundedRectRadius="12" basicInfo-polygonSides="6" basicInfo-starPoints="5" bounding="rect(-54.1085,-49.129,108.217,98.258)" text="" font-familyName="" font-pixelSize="20" font-bold="0" font-underline="0" font-alignment="1" strokeStyle="0" markerStart="0" markerEnd="0" shadowEnabled="0" shadowOffsetX="0" shadowOffsetY="2" shadowBlur="4" shadowOpacity="160" blurEnabled="0" blurRadius="4" transform="matrix(1,0,0,1,235.109,68.0899)" pers-center="0,0" pers-size="0,0" pers-start="0,0" pers-end="0,0" locked="0" mesh="" flag=""/>
            <path id="shapePath7" d="M181,117.219 L237.548,18.9609 C244.716,31.7699 253.409,47.9979 263.633,67.6429 L289.217,116.92 L181,117.219 L181,117.219 M284.092,114.033 L237.544,25.3589 L186.167,114.233 L284.092,114.033 M240.234,78.9909 C240.434,80.5849 240.168,82.0119 239.438,83.2709 C238.574,84.7329 237.347,85.4609 235.754,85.4609 C233.763,85.4609 232.236,84.4019 231.175,82.2759 C230.976,81.0149 231.076,79.7879 231.473,78.5919 C232.004,77.1329 232.899,76.2369 234.161,75.9039 C234.559,75.8379 234.957,75.8039 235.356,75.8039 C237.413,75.8059 239.039,76.8689 240.234,78.9909 M275.875,109.256 L255.465,109.654 L255.465,108.36 L272.488,107.862 C271.757,105.472 270.132,101.987 267.611,97.4089 C264.956,92.5649 263.23,88.9469 262.434,86.5589 L263.629,85.8619 L275.875,109.256 Z" style="stroke:none;fill-rule:nonzero;fill:#141414;fill-opacity:1;"/>
        </g>
        <g id="Shape8">
            <desc shapeID="8" type="0" basicInfo-basicType="0" basicInfo-roundedRectRadius="12" basicInfo-polygonSides="6" basicInfo-starPoints="5" bounding="rect(-46.8495,-49.4951,93.699,98.9901)" text="" font-familyName="" font-pixelSize="20" font-bold="0" font-underline="0" font-alignment="1" strokeStyle="0" markerStart="0" markerEnd="0" shadowEnabled="0" shadowOffsetX="0" shadowOffsetY="2" shadowBlur="4" shadowOpacity="160" blurEnabled="0" blurRadius="4" transform="matrix(1,0,0,1,338.055,67.2921)" pers-center="0,0" pers-size="0,0" pers-start="0,0" pers-end="0,0" locked="0" mesh="" flag=""/>
            <path id="shapePath8" d="M384.904,115.807 C369.371,116.077 353.837,116.314 338.303,116.518 C319.715,116.787 304.016,116.854 291.205,116.721 L291.205,18.0649 C294.921,18.5309 306.635,18.4629 326.347,17.8659 C341.877,17.4679 353.59,18.7959 361.488,21.8489 C372.77,26.1639 379.97,34.5919 383.092,47.1359 C383.156,47.9989 383.191,48.8949 383.191,49.8249 C383.191,59.0509 378.744,67.1159 369.85,74.0179 C367.459,75.8769 364.373,77.4029 360.59,78.5969 C357.271,79.5279 353.95,80.4239 350.633,81.2859 L384.904,115.807 M380.006,47.1049 C377.283,36.9629 371.708,29.8689 363.28,25.8249 C356.775,22.7769 347.651,21.2519 335.903,21.2519 C332.651,21.2519 327.74,21.3999 321.169,21.6989 C314.598,21.9989 309.753,22.1479 306.633,22.1479 C301.856,22.1479 297.707,21.9159 294.19,21.4509 L294.19,113.337 L377.913,113.337 L346.427,81.6099 C346.047,81.1459 345.859,80.5829 345.859,79.9189 C345.792,79.0569 346.092,78.4939 346.755,78.2299 C353.789,78.2299 360.593,76.0749 367.164,71.7649 C376.321,65.8669 380.603,57.6449 380.006,47.1049 L380.006,47.1049 M343.669,48.3299 C343.801,48.7939 343.868,49.2929 343.868,49.8229 C343.868,51.2829 343.402,52.4939 342.475,53.4559 C341.545,54.4179 340.384,54.8989 338.991,54.8989 C336.999,54.8989 335.439,53.8399 334.311,51.7149 C333.847,48.7279 334.71,46.6049 336.9,45.3439 C337.498,45.0789 338.095,44.9449 338.692,44.9449 C341.212,44.9449 342.872,46.0739 343.669,48.3299 M366.349,108.775 C361.509,108.841 354.379,108.64 344.962,108.173 L344.962,107.269 C346.82,107.001 349.607,106.899 353.325,106.969 C357.041,107.035 359.828,106.9 361.687,106.569 L344.962,89.4449 L347.051,89.4479 L366.349,108.775 M374.529,52.2129 C374.33,55.4649 373.135,58.6339 370.946,61.7189 C368.755,64.8059 366.101,67.0449 362.982,68.4389 L354.023,72.4219 L354.023,70.2299 C365.969,66.3819 372.373,60.3739 373.236,52.2119 L374.529,52.2119 L374.529,52.2129 Z" style="stroke:none;fill-rule:nonzero;fill:#141414;fill-opacity:1;"/>
        </g>
        <g id="Shape9">
            <desc shapeID="9" type="0" basicInfo-basicType="0" basicInfo-roundedRectRadius="12" basicInfo-polygonSides="6" basicInfo-starPoints="5" bounding="rect(-46.79,-48.333,93.58,96.6661)" text="" font-familyName="" font-pixelSize="20" font-bold="0" font-underline="0" font-alignment="1" strokeStyle="0" markerStart="0" markerEnd="0" shadowEnabled="0" shadowOffsetX="0" shadowOffsetY="2" shadowBlur="4" shadowOpacity="160" blurEnabled="0" blurRadius="4" transform="matrix(1,0,0,1,432.467,67.5919)" pers-center="0,0" pers-size="0,0" pers-start="0,0" pers-end="0,0" locked="0" mesh="" flag=""/>
            <path id="shapePath9" d="M479.257,84.3659 C476.005,93.6589 470.049,101.257 461.388,107.165 C452.728,113.07 443.484,115.99 433.662,115.924 C424.768,115.924 416.473,113.551 408.774,108.806 C401.074,104.061 395.068,97.6399 390.754,89.5429 C387.37,83.1709 385.677,75.7739 385.677,67.3429 C385.677,59.4449 387.203,52.5449 390.257,46.6359 C394.57,38.1399 400.66,31.4539 408.525,26.5759 C416.39,21.6969 424.967,19.2589 434.259,19.2589 C436.914,19.2589 439.569,19.4589 442.224,19.8559 C449.391,20.9849 456.094,23.8059 462.333,28.3159 C468.837,33.0299 473.647,38.7049 476.767,45.3399 C468.339,50.4519 455.695,58.0829 438.839,68.2379 C453.441,74.6789 466.914,80.0539 479.257,84.3659 L479.257,84.3659 M474.044,86.2519 C458.654,80.4489 444.657,74.6449 432.055,68.8439 C437.235,65.8599 444.042,61.7469 452.477,56.5039 C462.571,50.1369 469.246,45.9569 472.5,43.9649 C469.38,38.2539 464.867,33.5049 458.959,29.7189 C453.582,26.2649 447.574,23.9069 440.938,22.6429 C439.146,22.5119 437.386,22.4439 435.661,22.4439 C426.898,22.4439 418.933,24.3699 411.765,28.2179 C404.198,32.3339 398.322,38.1739 394.141,45.7399 C390.558,52.1789 388.766,59.4449 388.766,67.5419 C388.766,78.5599 391.851,87.7179 398.019,95.0179 C402.73,100.594 408.219,104.956 414.488,108.109 C420.756,111.262 427.307,112.838 434.142,112.838 C438.918,112.838 443.595,112.043 448.172,110.455 C454.209,108.407 459.583,105.331 464.293,101.229 C469.666,96.6029 472.914,91.6079 474.044,86.2519 M464.724,89.5449 C464.724,91.2709 463.629,93.1629 461.438,95.2189 C459.712,96.8109 457.721,98.1709 455.465,99.3009 L454.569,98.6039 C455.963,97.4759 457.356,96.3139 458.751,95.1199 C460.476,93.6609 461.637,92.1999 462.235,90.7399 C459.115,89.2139 454.833,87.4219 449.393,85.3639 C442.823,82.8429 438.476,81.1169 436.352,80.1889 L436.352,78.5929 L464.724,89.5449 Z" style="stroke:none;fill-rule:nonzero;fill:#141414;fill-opacity:1;"/>
        </g>
        <g id="Shape10">
            <desc shapeID="10" type="0" basicInfo-basicType="0" basicInfo-roundedRectRadius="12" basicInfo-polygonSides="6" basicInfo-starPoints="5" bounding="rect(-54.108,-49.129,108.216,98.258)" text="" font-familyName="" font-pixelSize="20" font-bold="0" font-underline="0" font-alignment="1" strokeStyle="0" markerStart="0" markerEnd="0" shadowEnabled="0" shadowOffsetX="0" shadowOffsetY="2" shadowBlur="4" shadowOpacity="160" blurEnabled="0" blurRadius="4" transform="matrix(1,0,0,1,518.831,68.0899)" pers-center="0,0" pers-size="0,0" pers-start="0,0" pers-end="0,0" locked="0" mesh="" flag=""/>
            <path id="shapePath10" d="M464.723,117.219 L521.27,18.9609 C528.437,31.7699 537.131,47.9979 547.354,67.6429 L572.939,116.92 L464.723,117.219 L464.723,117.219 M567.814,114.033 L521.265,25.3589 L469.888,114.233 L567.814,114.033 M523.957,78.9909 C524.156,80.5849 523.889,82.0119 523.16,83.2709 C522.296,84.7329 521.07,85.4609 519.476,85.4609 C517.485,85.4609 515.958,84.4019 514.895,82.2759 C514.696,81.0149 514.795,79.7879 515.194,78.5919 C515.724,77.1329 516.621,76.2369 517.882,75.9039 C518.281,75.8379 518.679,75.8039 519.076,75.8039 C521.134,75.8059 522.762,76.8689 523.957,78.9909 M559.598,109.256 L539.187,109.654 L539.187,108.36 L556.212,107.862 C555.48,105.472 553.856,101.987 551.332,97.4089 C548.677,92.5649 546.953,88.9469 546.156,86.5589 L547.35,85.8619 L559.598,109.256 Z" style="stroke:none;fill-rule:nonzero;fill:#141414;fill-opacity:1;"/>
        </g>
        <g id="Shape11">
            <desc shapeID="11" type="0" basicInfo-basicType="0" basicInfo-roundedRectRadius="12" basicInfo-polygonSides="6" basicInfo-starPoints="5" bounding="rect(-52.6625,-49.6265,105.325,99.253)" text="" font-familyName="" font-pixelSize="20" font-bold="0" font-underline="0" font-alignment="1" strokeStyle="0" markerStart="0" markerEnd="0" shadowEnabled="0" shadowOffsetX="0" shadowOffsetY="2" shadowBlur="4" shadowOpacity="160" blurEnabled="0" blurRadius="4" transform="matrix(1,0,0,1,627.192,67.6914)" pers-center="0,0" pers-size="0,0" pers-start="0,0" pers-end="0,0" locked="0" mesh="" flag=""/>
            <path id="shapePath11" d="M674.48,91.3869 C669.503,101.588 662.001,108.708 651.981,112.749 C644.349,115.795 634.062,117.318 621.119,117.318 C617.601,117.318 612.226,117.184 604.992,116.92 C597.758,116.655 592.381,116.522 588.864,116.522 C583.423,116.522 578.644,116.787 574.529,117.318 L574.828,18.0649 C580.393,18.1489 584.477,18.3479 589.588,18.3479 C593.105,18.3479 597.471,18.3309 605.08,18.3479 C612.382,18.3629 617.437,18.0649 621.019,18.0649 C632.102,18.0649 641.163,19.2579 648.197,21.6409 C657.222,24.6879 664.391,30.0519 669.7,37.7379 C676.471,45.3539 679.854,55.2569 679.854,67.4429 C679.854,76.1219 678.063,84.1029 674.48,91.3869 M675.377,54.7309 C673.052,46.7179 668.357,39.6479 661.29,33.5229 C654.221,27.3969 646.571,23.6039 638.343,22.1469 L619.274,21.3449 L577.515,21.4499 L577.515,114.231 C580.966,113.834 584.882,113.634 589.261,113.634 C592.978,113.634 598.652,113.834 606.285,114.231 C613.916,114.63 619.625,114.829 623.408,114.829 C641.128,114.829 654.203,110.558 662.631,102.015 C672.389,92.0159 677.266,80.5909 677.266,67.7429 C677.267,63.3729 676.635,59.0359 675.377,54.7309 M634.061,78.5929 C634.194,79.0589 634.261,79.5549 634.261,80.0879 C634.261,81.2819 633.878,82.3609 633.116,83.3229 C632.353,84.2849 631.375,84.8329 630.18,84.9639 C627.391,84.4359 625.666,83.4059 625.003,81.8799 C624.936,81.4149 624.904,80.9839 624.904,80.5859 C624.904,78.2619 625.964,76.5699 628.089,75.5069 C628.487,75.4419 628.886,75.4089 629.284,75.4089 C631.274,75.4089 632.867,76.4699 634.061,78.5929 M672.39,68.8369 C671.393,76.9349 669.069,84.0369 665.421,90.1399 C661.172,97.3089 655.53,102.254 648.495,104.974 C644.578,106.5 641.69,107.529 639.836,108.06 C636.584,108.99 633.529,109.486 630.677,109.555 L630.178,108.36 C645.773,105.638 656.594,99.9629 662.633,91.3369 C666.748,85.4299 669.404,77.9319 670.598,68.8379 L672.39,68.8379 L672.39,68.8369 Z" style="stroke:none;fill-rule:nonzero;fill:#141414;fill-opacity:1;"/>
        </g>
        <g id="Shape12">
            <desc shapeID="12" type="0" basicInfo-basicType="0" basicInfo-roundedRectRadius="12" basicInfo-polygonSides="6" basicInfo-starPoints="5" bounding="rect(-48.283,-49.578,96.566,99.156)" text="" font-familyName="" font-pixelSize="20" font-bold="0" font-underline="0" font-alignment="1" strokeStyle="0" markerStart="0" markerEnd="0" shadowEnabled="0" shadowOffsetX="0" shadowOffsetY="2" shadowBlur="4" shadowOpacity="160" blurEnabled="0" blurRadius="4" transform="matrix(1,0,0,1,732.717,67.6429)" pers-center="0,0" pers-size="0,0" pers-start="0,0" pers-end="0,0" locked="0" mesh="" flag=""/>
            <path id="shapePath12" d="M781,63.5609 L726.844,63.5609 C726.246,65.1689 725.948,67.0459 725.948,69.1879 C725.948,71.3319 726.246,73.1389 726.844,74.6129 L746.057,74.6129 L746.057,87.0559 L726.844,87.9519 L726.844,97.7089 L780.702,98.1069 L780.702,117.221 L684.434,117.221 L684.434,18.0649 L780.702,18.0649 L781,63.5609 M777.914,114.332 L777.914,101.392 L724.753,101.392 C723.757,97.8079 723.622,92.1329 724.355,84.3669 L743.269,84.3669 L743.269,77.6989 L724.06,77.6989 C723.593,76.2399 723.294,74.5129 723.159,72.5219 C723.024,71.2609 722.994,69.4349 723.06,67.0459 C723.125,64.3919 723.159,62.5659 723.159,61.5699 L724.056,60.6739 L777.913,60.6739 L777.913,21.4509 L687.219,21.4509 L687.219,114.332 L777.914,114.332 M732.916,27.5219 L693.792,27.8199 L693.494,60.2749 L692.101,60.2749 L692.101,25.7309 C701.259,25.5999 714.863,25.7659 732.917,26.2289 L732.917,27.5219 L732.916,27.5219 Z" style="stroke:none;fill-rule:nonzero;fill:#141414;fill-opacity:1;"/>
        </g>
        <g id="Shape13">
            <desc shapeID="13" type="0" basicInfo-basicType="0" basicInfo-roundedRectRadius="12" basicInfo-polygonSides="6" basicInfo-starPoints="5" bounding="rect(-92.0089,-65.1123,184.018,130.225)" text="My" font-familyName="Brush Script MT" font-pixelSize="150" font-bold="0" font-underline="0" font-alignment="1" strokeStyle="0" markerStart="0" markerEnd="0" shadowEnabled="0" shadowOffsetX="0" shadowOffsetY="2" shadowBlur="4" shadowOpacity="160" blurEnabled="0" blurRadius="4" transform="matrix(1,0,0,1,97.0089,82.9093)" pers-center="0,0" pers-size="0,0" pers-start="0,0" pers-end="0,0" locked="0" mesh="" flag=""/>
            <path id="shapePath13" d="M128.788,91.4787 L127.528,96.5324 C121.806,100.878 116.989,104.382 113.079,107.043 C109.168,109.704 105.337,112.096 101.585,114.22 C97.8324,116.344 94.7816,117.858 92.4324,118.761 C90.0832,119.665 88.1517,120.116 86.638,120.116 C83.0247,120.116 80.4054,118.774 78.7801,116.088 C77.1548,113.403 76.8717,109.936 77.9308,105.688 C79.1482,100.805 81.3423,95.9709 84.5129,91.1857 C87.6835,86.4006 91.7359,81.4567 96.6703,76.3542 C101.605,71.2516 107.622,65.5265 114.722,59.1789 C119.992,54.4914 122.701,51.8547 122.847,51.2687 C122.932,50.9269 122.883,50.6339 122.7,50.3898 C122.516,50.1457 122.278,50.0236 121.985,50.0236 C121.057,50.0236 117.69,52.0744 111.882,56.1759 C106.074,60.2775 98.4305,66.3078 88.951,74.2668 C79.4715,82.2257 69.0164,91.6984 57.5858,102.685 C56.9514,103.271 54.905,105.26 51.4466,108.654 C47.9882,112.048 45.594,114.257 44.2642,115.282 C42.9343,116.308 41.8787,116.82 41.0975,116.82 C39.7303,116.82 38.8901,115.441 38.577,112.682 C38.2639,109.924 38.4969,106.982 39.276,103.857 C39.7508,101.952 40.8847,99.9015 42.6777,97.7043 C44.4706,95.507 48.1636,91.5641 53.7567,85.8756 C59.3498,80.1872 64.0005,75.3898 67.7089,71.4836 C71.4172,67.5773 75.601,62.841 80.2603,57.2746 C83.517,53.4172 85.9808,50.341 87.6516,48.0461 C89.3224,45.7511 90.377,43.7248 90.8152,41.967 C91.1926,40.4533 90.9419,39.6964 90.063,39.6964 C88.2075,39.6964 84.0985,42.1745 77.7358,47.1305 C71.3732,52.0866 63.2025,59.4474 53.2237,69.2131 C43.2449,78.9787 32.553,90.2824 21.1481,103.124 C17.3669,107.519 14.726,110.473 13.2256,111.986 C11.7251,113.5 10.2913,114.257 8.92412,114.257 C7.21513,114.257 6.0695,112.438 5.48723,108.8 C4.90495,105.163 4.89381,102.221 5.45383,99.9748 C5.63644,99.2423 6.13029,98.4367 6.93536,97.5578 C15.5233,88.964 22.6412,81.6642 28.2891,75.6584 C33.9369,69.6525 39.0447,63.9518 43.6126,58.5563 C48.1806,53.1608 51.6322,48.7174 53.9675,45.2262 C56.3028,41.735 57.72,38.9884 58.2191,36.9865 C58.7426,34.8869 58.0522,33.8371 56.1479,33.8371 C54.5854,33.8371 51.6747,34.8381 47.4158,36.84 C43.1569,38.842 37.7266,41.5763 31.1249,45.0431 C24.5233,48.5099 19.2607,51.1589 15.3374,52.9899 C11.4141,54.821 8.59793,55.7365 6.88895,55.7365 C5.27762,55.7365 4.69717,54.8332 5.14762,53.0265 C5.40328,52.0011 6.33249,49.6452 7.93523,45.9587 C9.53798,42.2721 10.8943,39.672 12.0041,38.1584 C13.5164,36.2052 16.7862,33.6173 21.8133,30.3947 C26.8405,27.172 29.5737,25.5607 30.0132,25.5607 C30.4038,25.5607 30.5565,25.7316 30.4713,26.0734 C30.4226,26.2687 30.1543,26.5617 29.6662,26.9523 C27.2625,28.5636 25.4446,29.882 24.2123,30.9074 C22.9801,31.9328 22.0898,33.0558 21.5413,34.2765 C31.816,28.9054 40.8312,24.8161 48.5869,22.0085 C56.3425,19.2008 61.5876,17.797 64.322,17.797 C65.6891,17.797 66.7548,18.7126 67.519,20.5436 C68.2832,22.3747 68.7912,24.4987 69.043,26.9157 C69.2949,29.3327 69.3356,30.883 69.1652,31.5666 C68.5443,34.0568 67.176,36.9987 65.0604,40.3923 C62.9448,43.7858 60.2405,47.7287 56.9476,52.2209 C53.6547,56.7131 49.557,62.3283 44.6543,69.0666 C48.009,65.7951 51.1808,62.7677 54.1696,59.9845 C57.1585,57.2013 60.1169,54.4914 63.0448,51.8547 C65.9727,49.2179 68.9433,46.5568 71.9567,43.8713 C76.0436,40.2091 80.4815,36.7057 85.2705,33.361 C90.0595,30.0163 94.44,27.2819 98.412,25.1579 C102.384,23.0339 104.98,21.9718 106.201,21.9718 C107.91,21.9718 109.201,22.9118 110.076,24.7917 C110.95,26.6715 111.119,28.6857 110.583,30.8341 C110.23,32.2502 108.627,34.9601 105.773,38.964 C102.919,42.9679 98.9309,48.0949 93.8082,54.3449 C88.6854,60.5949 81.9648,68.6515 73.6462,78.5148 C80.6857,72.6066 87.9875,66.5275 95.5517,60.2775 C103.116,54.0275 108.722,49.4621 112.37,46.5812 C116.018,43.7004 119.007,41.5031 121.338,39.9894 C124.534,37.9386 127.783,35.7292 131.084,33.361 C134.384,30.9928 136.986,29.1252 138.889,27.758 C140.793,26.3908 142.446,25.341 143.849,24.6086 C145.253,23.8761 146.467,23.5099 147.492,23.5099 C148.762,23.5099 149.996,24.9748 151.194,27.9045 C152.392,30.8341 152.888,32.714 152.681,33.5441 C152.425,34.5695 151.547,35.7902 150.047,37.2062 C148.546,38.6222 145.508,41.2589 140.933,45.1164 C132.515,52.2453 124.961,59.4352 118.27,66.6862 C111.58,73.9372 106.231,80.5534 102.225,86.5348 C98.2192,92.5163 95.784,97.2404 94.9197,100.707 C94.384,102.856 94.3972,104.418 94.9594,105.395 C95.5216,106.371 96.6572,106.86 98.3662,106.86 C99.9287,106.86 101.454,106.567 102.943,105.981 C104.432,105.395 106.128,104.565 108.032,103.49 C109.935,102.416 111.741,101.391 113.45,100.414 C115.805,99.1935 118.145,97.8874 120.469,96.4958 C122.794,95.1042 124.606,94.0055 125.905,93.1999 C127.205,92.3942 128.166,91.8205 128.788,91.4787 M161.241,94.6281 L145.446,105.688 C137.894,111.108 133.068,113.818 130.968,113.818 C129.064,113.818 127.607,111.632 126.597,107.262 C125.587,102.892 125.49,99.0714 126.305,95.8 C126.999,93.0168 128.014,90.6608 129.349,88.7321 C130.685,86.8034 132.786,84.3009 135.652,81.2248 C139.665,77.0744 143.398,73.5588 146.851,70.6779 C150.304,67.797 153.278,65.5631 155.773,63.9762 C158.268,62.3893 159.931,61.5959 160.761,61.5959 C162.079,61.5959 163.191,62.2795 164.095,63.6466 C164.999,65.0138 165.269,66.4298 164.903,67.8947 C164.672,68.8224 163.629,70.3117 161.775,72.3625 C159.921,74.4132 157.149,77.0133 153.458,80.1628 C149.768,83.3122 144.787,87.0841 138.516,91.4787 L136.12,95.507 C135.534,96.2882 135.168,96.9718 135.022,97.5578 C134.694,98.8761 135.188,99.5353 136.507,99.5353 C137.874,99.5353 141.517,97.8019 147.435,94.3351 C153.353,90.8683 159.996,86.2052 167.365,80.3459 C170.233,78.0509 172.642,76.0246 174.594,74.2668 C176.546,72.5089 178.324,70.861 179.928,69.3229 C181.532,67.7848 182.835,66.6252 183.835,65.8439 C184.836,65.0627 185.659,64.6476 186.306,64.5988 C187.564,64.4523 188.388,64.965 188.779,66.1369 C189.171,67.3088 189.08,69.0422 188.508,71.3371 C188.179,72.6554 187.183,74.3034 185.518,76.2809 C183.853,78.2585 180.815,81.6276 176.406,86.3883 C171.996,91.1491 167.556,96.0807 163.086,101.183 C158.615,106.286 153.922,112.035 149.007,118.432 C149.19,118.285 151.057,116.82 154.607,114.037 C158.158,111.254 161.897,108.349 165.826,105.321 C169.754,102.294 172.972,99.8649 175.48,98.0339 C177.987,96.2028 181.083,94.0666 184.768,91.6252 L183.545,96.5324 C175.187,103.612 167.544,110.326 160.615,116.674 C153.686,123.022 148.294,128.1 144.439,131.908 C140.584,135.717 138.333,137.939 137.687,138.573 C135.942,140.282 134.359,141.882 132.938,143.371 C131.517,144.86 130.352,146.007 129.443,146.813 C128.534,147.619 127.86,148.022 127.421,148.022 C126.395,148.022 125.732,147.008 125.432,144.982 C125.132,142.956 125.176,141.161 125.566,139.599 C125.919,138.183 126.498,136.938 127.303,135.863 C132.79,127.953 144.103,114.208 161.241,94.6281 Z" style="stroke:none;fill-rule:nonzero;fill:#e3e3e3;fill-opacity:1;"/>
        </g>
    </g>
</svg>
