<?xml version="1.0"?>
<svg version="1.1" xmlns="http://www.w3.org/2000/svg" xmlns:xlink="http://www.w3.org/1999/xlink" width="761" height="103">
    <desc iVinci="yes" version="4.6" gridStep="20" showGrid="no" snapToGrid="no" codePlatform="0"/>
    <g id="Layer1" name="Layer 1" opacity="1">
        <g id="Shape1">
            <desc shapeID="1" type="0" basicInfo-basicType="0" basicInfo-roundedRectRadius="12" basicInfo-polygonSides="6" basicInfo-starPoints="5" bounding="rect(-51.0725,-51.0805,102.145,102.161)" text="" font-familyName="" font-pixelSize="20" font-bold="0" font-underline="0" font-alignment="1" strokeStyle="0" markerStart="0" markerEnd="0" shadowEnabled="0" shadowOffsetX="0" shadowOffsetY="2" shadowBlur="4" shadowOpacity="160" blurEnabled="0" blurRadius="4" transform="matrix(1,0,0,1,371.292,51.0805)" pers-center="0,0" pers-size="0,0" pers-start="0,0" pers-end="0,0" locked="0" mesh="" flag=""/>
            <path id="shapePath1" d="M374.451,61.609 L376.826,61.609 C379.045,61.609 382.838,62.065 384.4,62.98 C385.963,63.89 386.994,64.911 387.49,66.04 C387.989,67.169 388.241,69.658 388.241,73.504 L388.241,88.602 C388.241,93.158 383.426,95.479 381.107,95.983 C378.778,96.485 376.515,96.737 374.31,96.737 C367.953,96.737 362.467,95.084 357.841,91.774 C353.22,88.463 349.873,83.287 347.794,76.228 C345.722,69.179 344.688,60.982 344.688,51.621 C344.688,43.9 345.634,36.369 347.53,29.032 C349.429,21.693 352.658,15.976 357.218,11.871 C361.778,7.771 367.494,5.719 374.356,5.719 C381.538,5.719 385.742,7.538 391.027,13.032 C396.434,18.649 401.621,25.031 404.649,34.399 L409.071,34.399 L409.071,0.0019989 L406.555,0.0019989 C405.648,2.757 404.657,4.628 403.575,5.616 C402.487,6.607 401.311,7.1 400.05,7.1 C399.236,7.1 396.6,6.205 392.154,4.414 C387.708,2.621 384.488,1.533 382.501,1.148 C378.845,0.384998 376.003,0 371.445,0 C356.721,0 344.499,5.06 334.785,15.179 C325.073,25.306 320.219,37.702 320.219,52.377 C320.219,60.577 321.795,67.987 324.959,74.605 C327.443,79.738 330.887,84.349 335.29,88.454 C339.695,92.554 344.781,95.865 350.534,98.387 C356.296,100.902 363.535,102.161 372.251,102.161 C379.075,102.161 385.652,101.456 392.002,100.047 C398.35,98.634 404.454,96.542 410.339,93.769 L410.339,73.48 C410.339,69.925 410.54,67.689 410.945,66.78 C411.667,65.047 412.691,63.811 414.024,63.063 C415.352,62.315 418.982,61.829 422.364,61.584 L422.364,58.263 L374.435,58.263 L374.435,61.584 L374.451,61.609 Z" style="stroke:#ffffff;stroke-opacity:1;stroke-width:1;stroke-linejoin:miter;stroke-miterlimit:2;stroke-linecap:butt;fill-rule:nonzero;fill:#ffffff;fill-opacity:1;"/>
        </g>
        <g id="Shape2">
            <desc shapeID="2" type="0" basicInfo-basicType="0" basicInfo-roundedRectRadius="12" basicInfo-polygonSides="6" basicInfo-starPoints="5" bounding="rect(-44.165,-48.454,88.33,96.908)" text="" font-familyName="" font-pixelSize="20" font-bold="0" font-underline="0" font-alignment="1" strokeStyle="0" markerStart="0" markerEnd="0" shadowEnabled="0" shadowOffsetX="0" shadowOffsetY="2" shadowBlur="4" shadowOpacity="160" blurEnabled="0" blurRadius="4" transform="matrix(1,0,0,1,456.761,51.112)" pers-center="0,0" pers-size="0,0" pers-start="0,0" pers-end="0,0" locked="0" mesh="" flag=""/>
            <path id="shapePath2" d="M484.621,87.887 C479.16,92.069 471.89,94.159 462.824,94.159 L457.657,94.159 C454.887,94.159 452.886,93.782 451.641,93.02 C450.407,92.258 449.553,91.282 449.103,90.095 C448.65,88.906 448.423,85.648 448.423,80.329 L448.423,53.078 C453.079,53.078 458.532,53.684 460.98,54.9 C463.426,56.112 465.572,58.483 467.417,62.009 C469.27,65.533 470.48,69.426 471.056,74.95 L474.986,74.95 L474.986,24.802 L471.056,24.802 C470.286,32.336 468.512,37.395 465.727,41.255 C462.945,45.115 458.456,47.046 452.269,47.046 L448.417,47.046 L448.417,13.407 C448.387,7.561 453.599,8.237 453.599,8.237 L459.689,8.237 C467.051,8.237 472.066,8.669 474.743,9.527 C479.331,10.954 482.883,13.191 485.392,16.237 C487.904,19.285 489.848,24.304 491.235,31.302 L494.532,31.302 L494.532,2.658 L412.596,2.658 L412.596,6.581 L415.179,6.581 C418.328,6.581 420.811,7.247 422.622,8.577 C423.912,9.48 424.796,10.769 425.27,12.432 C425.512,13.426 425.631,16.115 425.631,20.492 L425.631,81.094 C425.631,85.944 425.368,88.941 424.842,90.085 C424.174,91.7 423.216,92.842 421.979,93.509 C420.258,94.509 417.994,95.008 415.183,95.008 L412.597,95.008 L412.597,99.566 L495.92,99.566 L500.926,68.749 L496.355,68.749 C493.968,77.328 490.043,83.709 484.578,87.888 " style="stroke:#ffffff;stroke-opacity:1;stroke-width:1;stroke-linejoin:miter;stroke-miterlimit:2;stroke-linecap:butt;fill-rule:nonzero;fill:#ffffff;fill-opacity:1;"/>
        </g>
        <g id="Shape3">
            <desc shapeID="3" type="0" basicInfo-basicType="0" basicInfo-roundedRectRadius="12" basicInfo-polygonSides="6" basicInfo-starPoints="5" bounding="rect(-50.271,-50.6993,100.542,101.399)" text="" font-familyName="" font-pixelSize="20" font-bold="0" font-underline="0" font-alignment="1" strokeStyle="0" markerStart="0" markerEnd="0" shadowEnabled="0" shadowOffsetX="0" shadowOffsetY="2" shadowBlur="4" shadowOpacity="160" blurEnabled="0" blurRadius="4" transform="matrix(1,0,0,1,549.729,51.7877)" pers-center="0,0" pers-size="0,0" pers-start="0,0" pers-end="0,0" locked="0" mesh="" flag=""/>
            <path id="shapePath3" d="M549.092,1.137 C535.13,0.561001 523.361,5.111 513.805,14.798 C504.231,24.476 499.458,36.579 499.458,51.089 C499.458,64.017 503.133,75.187 510.49,84.606 C519.795,96.521 532.966,102.487 550.006,102.487 C566.989,102.487 580.146,96.241 589.455,83.741 C596.483,74.334 600,63.42 600,51.017 C600,36.506 595.284,24.42 585.867,14.758 C576.439,5.095 564.191,0.556999 549.109,1.138 M571.381,78.697 C569.1,85.446 565.913,90.359 561.818,93.427 C558.605,95.833 554.601,97.032 549.803,97.032 C542.681,97.032 537.148,94.244 533.183,88.675 C527.504,80.703 524.661,68.386 524.661,51.713 C524.661,37.684 526.499,26.928 530.178,19.437 C534.693,10.315 541.275,5.752 549.933,5.752 C554.635,5.752 558.79,7.075 562.397,9.718 C566.003,12.357 568.97,16.887 571.297,23.296 C573.628,29.713 574.791,39.373 574.791,52.301 C574.791,63.155 573.652,71.958 571.367,78.709 " style="stroke:#ffffff;stroke-opacity:1;stroke-width:1;stroke-linejoin:miter;stroke-miterlimit:2;stroke-linecap:butt;fill-rule:nonzero;fill:#ffffff;fill-opacity:1;"/>
        </g>
        <g id="Shape4">
            <desc shapeID="4" type="0" basicInfo-basicType="0" basicInfo-roundedRectRadius="12" basicInfo-polygonSides="6" basicInfo-starPoints="5" bounding="rect(-50.263,-50.6991,100.526,101.398)" text="" font-familyName="" font-pixelSize="20" font-bold="0" font-underline="0" font-alignment="1" strokeStyle="0" markerStart="0" markerEnd="0" shadowEnabled="0" shadowOffsetX="0" shadowOffsetY="2" shadowBlur="4" shadowOpacity="160" blurEnabled="0" blurRadius="4" transform="matrix(1,0,0,1,239.446,51.2239)" pers-center="0,0" pers-size="0,0" pers-start="0,0" pers-end="0,0" locked="0" mesh="" flag=""/>
            <path id="shapePath4" d="M239.715,101.922 C256.698,101.922 269.853,95.673 279.165,83.175 C286.191,73.758 289.709,62.857 289.709,50.452 C289.709,35.942 284.993,23.856 275.574,14.193 C266.148,4.532 253.899,-0.00500107 238.818,0.574001 C224.855,-0.0019989 213.087,4.549 203.531,14.235 C193.957,23.912 189.183,36.017 189.183,50.526 C189.183,63.454 192.858,74.625 200.217,84.043 C209.52,95.957 222.692,101.923 239.732,101.923 M219.737,18.927 C224.251,9.805 230.835,5.242 239.495,5.242 C244.196,5.242 248.349,6.562 251.956,9.205 C255.563,11.847 258.53,16.375 260.86,22.785 C263.187,29.201 264.351,38.86 264.351,51.78 C264.351,62.633 263.212,71.44 260.929,78.188 C258.65,84.937 255.461,89.85 251.364,92.926 C248.155,95.328 244.15,96.528 239.351,96.528 C232.229,96.528 226.694,93.742 222.728,88.172 C217.05,80.199 214.208,67.884 214.208,51.212 C214.208,37.183 216.045,26.427 219.723,18.935 " style="stroke:#ffffff;stroke-opacity:1;stroke-width:1;stroke-linejoin:miter;stroke-miterlimit:2;stroke-linecap:butt;fill-rule:nonzero;fill:#ffffff;fill-opacity:1;"/>
        </g>
        <g id="Shape5">
            <desc shapeID="5" type="0" basicInfo-basicType="0" basicInfo-roundedRectRadius="12" basicInfo-polygonSides="6" basicInfo-starPoints="5" bounding="rect(-44.1785,-48.4635,88.357,96.927)" text="" font-familyName="" font-pixelSize="20" font-bold="0" font-underline="0" font-alignment="1" strokeStyle="0" markerStart="0" markerEnd="0" shadowEnabled="0" shadowOffsetX="0" shadowOffsetY="2" shadowBlur="4" shadowOpacity="160" blurEnabled="0" blurRadius="4" transform="matrix(1,0,0,1,146.327,50.3175)" pers-center="0,0" pers-size="0,0" pers-start="0,0" pers-end="0,0" locked="0" mesh="" flag=""/>
            <path id="shapePath5" d="M190.505,67.975 L185.931,67.975 C183.544,76.551 179.617,82.934 174.155,87.111 C168.693,91.293 161.424,93.382 152.366,93.382 L147.197,93.382 C144.428,93.382 142.429,93.002 141.185,92.245 C139.946,91.482 139.098,90.507 138.645,89.319 C138.193,88.129 137.964,84.872 137.964,79.55 L137.964,52.3 C142.62,52.3 148.074,52.907 150.523,54.124 C152.969,55.335 155.117,57.709 156.961,61.233 C158.812,64.759 160.024,68.65 160.601,74.177 L164.53,74.177 L164.53,24.026 L160.601,24.026 C159.83,31.557 158.054,36.618 155.27,40.479 C152.492,44.34 148,46.268 141.813,46.268 L137.961,46.268 L137.961,12.63 C137.929,6.783 143.145,7.46 143.145,7.46 L149.229,7.46 C156.597,7.46 161.618,7.891 164.294,8.747 C168.886,10.174 172.435,12.414 174.944,15.459 C177.457,18.505 179.403,23.529 180.791,30.522 L184.084,30.522 L184.084,1.854 L102.149,1.854 L102.149,5.803 L104.731,5.803 C107.88,5.803 110.362,6.469 112.174,7.797 C113.462,8.701 114.344,9.989 114.819,11.652 C115.061,12.648 115.181,15.335 115.181,19.711 L115.181,80.315 C115.181,85.165 114.919,88.162 114.393,89.299 C113.727,90.913 112.768,92.061 111.533,92.724 C109.814,93.724 107.548,94.222 104.73,94.222 L102.148,94.222 L102.148,98.781 L185.471,98.781 L190.48,67.965 L190.505,67.975 Z" style="stroke:#ffffff;stroke-opacity:1;stroke-width:1;stroke-linejoin:miter;stroke-miterlimit:2;stroke-linecap:butt;fill-rule:nonzero;fill:#ffffff;fill-opacity:1;"/>
        </g>
        <g id="Shape6">
            <desc shapeID="6" type="0" basicInfo-basicType="0" basicInfo-roundedRectRadius="12" basicInfo-polygonSides="6" basicInfo-starPoints="5" bounding="rect(-49.3245,-49.319,98.649,98.638)" text="" font-familyName="" font-pixelSize="20" font-bold="0" font-underline="0" font-alignment="1" strokeStyle="0" markerStart="0" markerEnd="0" shadowEnabled="0" shadowOffsetX="0" shadowOffsetY="2" shadowBlur="4" shadowOpacity="160" blurEnabled="0" blurRadius="4" transform="matrix(1,0,0,1,49.3245,51.18)" pers-center="0,0" pers-size="0,0" pers-start="0,0" pers-end="0,0" locked="0" mesh="" flag=""/>
            <path id="shapePath6" d="M33.245,94.171 L31.035,94.171 C27.862,94.171 25.043,93.197 22.578,91.247 C20.119,89.298 18.888,85.548 18.888,79.986 L18.888,21.455 L82.29,100.494 L86.4,100.499 L86.4,19.886 C86.4,15.303 86.781,13.972 87.537,12.086 C88.293,10.199 89.351,8.838 90.701,8.002 C92.054,7.168 94.705,6.488 98.649,5.962 L98.649,1.861 L67.197,1.861 L67.197,5.962 C72.381,5.868 76.085,7.202 78.278,9.973 C79.886,12.026 80.689,14.06 80.689,19.888 L80.689,62.104 L31.332,1.861 L1.3,1.861 L1.3,5.114 C4.155,5.209 4.257,6.165 5.777,6.972 L13.822,15.07 L13.81,79.979 C13.81,85.113 12.796,88.746 10.772,90.882 C8.745,93.021 5.153,94.113 0,94.16 L0,98.084 L33.231,98.084 L33.231,94.16 L33.245,94.171 Z" style="stroke:#ffffff;stroke-opacity:1;stroke-width:1;stroke-linejoin:miter;stroke-miterlimit:2;stroke-linecap:butt;fill-rule:nonzero;fill:#ffffff;fill-opacity:1;"/>
        </g>
        <g id="Shape7">
            <desc shapeID="7" type="0" basicInfo-basicType="0" basicInfo-roundedRectRadius="12" basicInfo-polygonSides="6" basicInfo-starPoints="5" bounding="rect(-11.66,-11.66,23.32,23.32)" text="" font-familyName="" font-pixelSize="20" font-bold="0" font-underline="0" font-alignment="1" strokeStyle="0" markerStart="0" markerEnd="0" shadowEnabled="0" shadowOffsetX="0" shadowOffsetY="2" shadowBlur="4" shadowOpacity="160" blurEnabled="0" blurRadius="4" transform="matrix(1,0,0,1,305.104,51.244)" pers-center="0,0" pers-size="0,0" pers-start="0,0" pers-end="0,0" locked="0" mesh="" flag=""/>
            <path id="shapePath7" d="M316.764,51.244 C316.764,57.686 311.543,62.904 305.105,62.904 C298.663,62.904 293.444,57.681 293.444,51.244 C293.444,44.801 298.668,39.584 305.105,39.584 C311.546,39.584 316.764,44.806 316.764,51.244 Z" style="stroke:#000000;stroke-opacity:1;stroke-width:0.133;stroke-linejoin:miter;stroke-miterlimit:2;stroke-linecap:butt;fill-rule:nonzero;fill:#ffffff;fill-opacity:1;"/>
        </g>
        <g id="Shape8">
            <desc shapeID="8" type="0" basicInfo-basicType="0" basicInfo-roundedRectRadius="12" basicInfo-polygonSides="6" basicInfo-starPoints="5" bounding="rect(-73.7193,-73.7199,147.439,147.44)" text="" font-familyName="" font-pixelSize="20" font-bold="0" font-underline="0" font-alignment="1" strokeStyle="0" markerStart="0" markerEnd="0" shadowEnabled="0" shadowOffsetX="0" shadowOffsetY="2" shadowBlur="4" shadowOpacity="160" blurEnabled="0" blurRadius="4" transform="matrix(0.326072,0,0,0.326072,638.705,75.7287)" pers-center="0,0" pers-size="0,0" pers-start="0,0" pers-end="0,0" locked="0" mesh="" flag=""/>
            <path id="shapePath8" d="M632.486,52.5165 C619.667,55.9513 612.058,69.1312 615.492,81.9486 C618.927,94.7672 632.107,102.377 644.925,98.9422 C657.744,95.5075 665.354,82.3275 661.919,69.5086 C658.484,56.6903 645.304,49.0805 632.485,52.5153 L632.486,52.5165 M632.615,52.9978 C645.173,49.6329 658.073,57.08 661.438,69.6385 C664.803,82.197 657.355,95.0969 644.797,98.4619 C632.237,101.827 619.338,94.3809 615.972,81.8209 C612.607,69.2631 620.055,56.3635 632.614,52.9984 L632.615,52.9978 Z" style="stroke:none;fill-rule:nonzero;fill:#e6e6e6;fill-opacity:1;"/>
        </g>
        <g id="Shape9">
            <desc shapeID="9" type="0" basicInfo-basicType="0" basicInfo-roundedRectRadius="12" basicInfo-polygonSides="6" basicInfo-starPoints="5" bounding="rect(-31.1015,-31.1007,62.2031,62.2013)" text="" font-familyName="" font-pixelSize="20" font-bold="0" font-underline="0" font-alignment="1" strokeStyle="0" markerStart="0" markerEnd="0" shadowEnabled="0" shadowOffsetX="0" shadowOffsetY="2" shadowBlur="4" shadowOpacity="160" blurEnabled="0" blurRadius="4" transform="matrix(0.326072,0,0,0.326072,638.706,75.7307)" pers-center="0,0" pers-size="0,0" pers-start="0,0" pers-end="0,0" locked="0" mesh="" flag=""/>
            <path id="shapePath9" d="M636.082,65.9371 C630.677,67.3854 627.464,72.9491 628.912,78.3551 C630.36,83.7602 635.925,86.9727 641.33,85.5242 C646.736,84.0759 649.948,78.512 648.5,73.1066 C647.051,67.7009 641.488,64.4886 636.082,65.9371 M636.211,66.4183 C641.356,65.0398 646.64,68.0901 648.018,73.2356 C649.397,78.3805 646.346,83.6643 641.201,85.043 C636.056,86.4216 630.772,83.371 629.394,78.2261 C628.015,73.0809 631.066,67.797 636.211,66.4183 Z" style="stroke:none;fill-rule:nonzero;fill:#e6e6e6;fill-opacity:1;"/>
        </g>
        <g id="Shape10">
            <desc shapeID="10" type="0" basicInfo-basicType="0" basicInfo-roundedRectRadius="12" basicInfo-polygonSides="6" basicInfo-starPoints="5" bounding="rect(-3.65277,-7.36026,7.30554,14.7205)" text="" font-familyName="" font-pixelSize="20" font-bold="0" font-underline="0" font-alignment="1" strokeStyle="0" markerStart="0" markerEnd="0" shadowEnabled="0" shadowOffsetX="0" shadowOffsetY="2" shadowBlur="4" shadowOpacity="160" blurEnabled="0" blurRadius="4" transform="matrix(0.326072,0,0,0.326072,635.763,62.7019)" pers-center="0,0" pers-size="0,0" pers-start="0,0" pers-end="0,0" locked="0" mesh="" flag=""/>
            <path id="shapePath10" d="M634.572,60.3019 L636.954,64.469 L634.592,65.1018 L634.572,60.3019 Z" style="stroke:none;fill-rule:nonzero;fill:#e6e6e6;fill-opacity:1;"/>
        </g>
        <g id="Shape11">
            <desc shapeID="11" type="0" basicInfo-basicType="0" basicInfo-roundedRectRadius="12" basicInfo-polygonSides="6" basicInfo-starPoints="5" bounding="rect(-7.10889,-5.18376,14.2178,10.3675)" text="" font-familyName="" font-pixelSize="20" font-bold="0" font-underline="0" font-alignment="1" strokeStyle="0" markerStart="0" markerEnd="0" shadowEnabled="0" shadowOffsetX="0" shadowOffsetY="2" shadowBlur="4" shadowOpacity="160" blurEnabled="0" blurRadius="4" transform="matrix(0.326072,0,0,0.326072,627.184,69.4298)" pers-center="0,0" pers-size="0,0" pers-start="0,0" pers-end="0,0" locked="0" mesh="" flag=""/>
            <path id="shapePath11" d="M624.866,67.7395 L629.502,69.0048 L628.288,71.1201 L624.866,67.7395 Z" style="stroke:none;fill-rule:nonzero;fill:#e6e6e6;fill-opacity:1;"/>
        </g>
        <g id="Shape12">
            <desc shapeID="12" type="0" basicInfo-basicType="0" basicInfo-roundedRectRadius="12" basicInfo-polygonSides="6" basicInfo-starPoints="5" bounding="rect(-7.37076,-3.6561,14.7415,7.31219)" text="" font-familyName="" font-pixelSize="20" font-bold="0" font-underline="0" font-alignment="1" strokeStyle="0" markerStart="0" markerEnd="0" shadowEnabled="0" shadowOffsetX="0" shadowOffsetY="2" shadowBlur="4" shadowOpacity="160" blurEnabled="0" blurRadius="4" transform="matrix(0.326072,0,0,0.326072,625.674,78.6746)" pers-center="0,0" pers-size="0,0" pers-start="0,0" pers-end="0,0" locked="0" mesh="" flag=""/>
            <path id="shapePath12" d="M627.445,77.4824 L628.078,79.8443 L623.271,79.8668 L627.445,77.4824 Z" style="stroke:none;fill-rule:nonzero;fill:#e6e6e6;fill-opacity:1;"/>
        </g>
        <g id="Shape13">
            <desc shapeID="13" type="0" basicInfo-basicType="0" basicInfo-roundedRectRadius="12" basicInfo-polygonSides="6" basicInfo-starPoints="5" bounding="rect(-5.18639,-7.11136,10.3728,14.2227)" text="" font-familyName="" font-pixelSize="20" font-bold="0" font-underline="0" font-alignment="1" strokeStyle="0" markerStart="0" markerEnd="0" shadowEnabled="0" shadowOffsetX="0" shadowOffsetY="2" shadowBlur="4" shadowOpacity="160" blurEnabled="0" blurRadius="4" transform="matrix(0.326072,0,0,0.326072,632.407,87.2507)" pers-center="0,0" pers-size="0,0" pers-start="0,0" pers-end="0,0" locked="0" mesh="" flag=""/>
            <path id="shapePath13" d="M631.989,84.9318 L634.098,86.1557 L630.716,89.5695 L631.989,84.9318 Z" style="stroke:none;fill-rule:nonzero;fill:#e6e6e6;fill-opacity:1;"/>
        </g>
        <g id="Shape14">
            <desc shapeID="14" type="0" basicInfo-basicType="0" basicInfo-roundedRectRadius="12" basicInfo-polygonSides="6" basicInfo-starPoints="5" bounding="rect(-3.65312,-7.35965,7.30624,14.7193)" text="" font-familyName="" font-pixelSize="20" font-bold="0" font-underline="0" font-alignment="1" strokeStyle="0" markerStart="0" markerEnd="0" shadowEnabled="0" shadowOffsetX="0" shadowOffsetY="2" shadowBlur="4" shadowOpacity="160" blurEnabled="0" blurRadius="4" transform="matrix(0.326072,0,0,0.326072,641.648,88.7574)" pers-center="0,0" pers-size="0,0" pers-start="0,0" pers-end="0,0" locked="0" mesh="" flag=""/>
            <path id="shapePath14" d="M640.457,86.9905 L642.819,86.3576 L642.839,91.1572 L640.457,86.9905 Z" style="stroke:none;fill-rule:nonzero;fill:#e6e6e6;fill-opacity:1;"/>
        </g>
        <g id="Shape15">
            <desc shapeID="15" type="0" basicInfo-basicType="0" basicInfo-roundedRectRadius="12" basicInfo-polygonSides="6" basicInfo-starPoints="5" bounding="rect(-7.09482,-5.17792,14.1896,10.3558)" text="" font-familyName="" font-pixelSize="20" font-bold="0" font-underline="0" font-alignment="1" strokeStyle="0" markerStart="0" markerEnd="0" shadowEnabled="0" shadowOffsetX="0" shadowOffsetY="2" shadowBlur="4" shadowOpacity="160" blurEnabled="0" blurRadius="4" transform="matrix(0.326072,0,0,0.326072,650.222,82.0268)" pers-center="0,0" pers-size="0,0" pers-start="0,0" pers-end="0,0" locked="0" mesh="" flag=""/>
            <path id="shapePath15" d="M649.131,80.3384 L652.535,83.7151 L647.909,82.4551 L649.131,80.3384 Z" style="stroke:none;fill-rule:nonzero;fill:#e6e6e6;fill-opacity:1;"/>
        </g>
        <g id="Shape16">
            <desc shapeID="16" type="0" basicInfo-basicType="0" basicInfo-roundedRectRadius="12" basicInfo-polygonSides="6" basicInfo-starPoints="5" bounding="rect(-7.38248,-3.65872,14.765,7.31746)" text="" font-familyName="" font-pixelSize="20" font-bold="0" font-underline="0" font-alignment="1" strokeStyle="0" markerStart="0" markerEnd="0" shadowEnabled="0" shadowOffsetX="0" shadowOffsetY="2" shadowBlur="4" shadowOpacity="160" blurEnabled="0" blurRadius="4" transform="matrix(0.326072,0,0,0.326072,651.742,72.7856)" pers-center="0,0" pers-size="0,0" pers-start="0,0" pers-end="0,0" locked="0" mesh="" flag=""/>
            <path id="shapePath16" d="M649.335,71.6167 L654.149,71.5926 L649.968,73.9786 L649.335,71.6167 Z" style="stroke:none;fill-rule:nonzero;fill:#e6e6e6;fill-opacity:1;"/>
        </g>
        <g id="Shape17">
            <desc shapeID="17" type="0" basicInfo-basicType="0" basicInfo-roundedRectRadius="12" basicInfo-polygonSides="6" basicInfo-starPoints="5" bounding="rect(-5.17886,-7.0948,10.3577,14.1896)" text="" font-familyName="" font-pixelSize="20" font-bold="0" font-underline="0" font-alignment="1" strokeStyle="0" markerStart="0" markerEnd="0" shadowEnabled="0" shadowOffsetX="0" shadowOffsetY="2" shadowBlur="4" shadowOpacity="160" blurEnabled="0" blurRadius="4" transform="matrix(0.326072,0,0,0.326072,645.001,64.2136)" pers-center="0,0" pers-size="0,0" pers-start="0,0" pers-end="0,0" locked="0" mesh="" flag=""/>
            <path id="shapePath17" d="M646.69,61.9002 L645.43,66.527 L643.313,65.3046 L646.69,61.9002 Z" style="stroke:none;fill-rule:nonzero;fill:#e6e6e6;fill-opacity:1;"/>
        </g>
        <g id="Shape18">
            <desc shapeID="18" type="0" basicInfo-basicType="0" basicInfo-roundedRectRadius="12" basicInfo-polygonSides="6" basicInfo-starPoints="5" bounding="rect(-27.2672,-27.2673,54.5345,54.5346)" text="" font-familyName="" font-pixelSize="20" font-bold="0" font-underline="0" font-alignment="1" strokeStyle="0" markerStart="0" markerEnd="0" shadowEnabled="0" shadowOffsetX="0" shadowOffsetY="2" shadowBlur="4" shadowOpacity="160" blurEnabled="0" blurRadius="4" transform="matrix(0.326072,0,0,0.326072,686.06,51.6945)" pers-center="0,0" pers-size="0,0" pers-start="0,0" pers-end="0,0" locked="0" mesh="" flag=""/>
            <path id="shapePath18" d="M683.756,43.1084 C679.017,44.3782 676.204,49.2515 677.473,53.9904 C678.743,58.7296 683.619,61.5511 688.358,60.2813 C693.096,59.0116 695.916,54.1282 694.646,49.3889 C693.377,44.65 688.496,41.8384 683.756,43.1084 M683.885,43.5896 C688.364,42.3895 692.964,45.039 694.164,49.518 C695.365,53.9968 692.708,58.5999 688.229,59.8001 C683.75,61.0001 679.155,58.3402 677.955,53.8615 C676.754,49.3824 679.407,44.7896 683.885,43.5896 Z" style="stroke:none;fill-rule:nonzero;fill:#e6e6e6;fill-opacity:1;"/>
        </g>
        <g id="Shape19">
            <desc shapeID="19" type="0" basicInfo-basicType="0" basicInfo-roundedRectRadius="12" basicInfo-polygonSides="6" basicInfo-starPoints="5" bounding="rect(-18.5364,-18.5364,37.0727,37.0728)" text="" font-familyName="" font-pixelSize="20" font-bold="0" font-underline="0" font-alignment="1" strokeStyle="0" markerStart="0" markerEnd="0" shadowEnabled="0" shadowOffsetX="0" shadowOffsetY="2" shadowBlur="4" shadowOpacity="160" blurEnabled="0" blurRadius="4" transform="matrix(0.326072,0,0,0.326072,686.056,51.6908)" pers-center="0,0" pers-size="0,0" pers-start="0,0" pers-end="0,0" locked="0" mesh="" flag=""/>
            <path id="shapePath19" d="M684.492,45.8537 C681.271,46.7168 679.356,50.0338 680.219,53.2549 C681.082,56.476 684.399,58.3912 687.62,57.528 C690.842,56.6649 692.756,53.3479 691.893,50.1268 C691.03,46.9057 687.713,44.9905 684.492,45.8537 M684.621,46.3352 C687.582,45.5419 690.618,47.2949 691.411,50.2556 C692.205,53.2165 690.451,56.2529 687.491,57.0461 C684.53,57.8395 681.494,56.0865 680.7,53.1256 C679.907,50.1649 681.66,47.1286 684.621,46.3352 Z" style="stroke:none;fill-rule:nonzero;fill:#e6e6e6;fill-opacity:1;"/>
        </g>
        <g id="Shape20">
            <desc shapeID="20" type="0" basicInfo-basicType="0" basicInfo-roundedRectRadius="12" basicInfo-polygonSides="6" basicInfo-starPoints="5" bounding="rect(-27.2675,-27.2566,54.535,54.5131)" text="" font-familyName="" font-pixelSize="20" font-bold="0" font-underline="0" font-alignment="1" strokeStyle="0" markerStart="0" markerEnd="0" shadowEnabled="0" shadowOffsetX="0" shadowOffsetY="2" shadowBlur="4" shadowOpacity="160" blurEnabled="0" blurRadius="4" transform="matrix(0.326072,0,0,0.326072,707.843,45.8537)" pers-center="0,0" pers-size="0,0" pers-start="0,0" pers-end="0,0" locked="0" mesh="" flag=""/>
            <path id="shapePath20" d="M705.54,37.2711 C700.801,38.541 697.987,43.4147 699.257,48.1536 C700.527,52.8928 705.401,55.7064 710.14,54.4365 C714.878,53.1668 717.7,48.2913 716.43,43.552 C715.161,38.8128 710.28,36.0012 705.54,37.2711 M705.669,37.7524 C710.148,36.5524 714.749,39.2023 715.949,43.6811 C717.149,48.1598 714.489,52.7549 710.011,53.9549 C705.532,55.1551 700.939,52.503 699.739,48.0246 C698.539,43.5454 701.19,38.9525 705.669,37.7524 Z" style="stroke:none;fill-rule:nonzero;fill:#e6e6e6;fill-opacity:1;"/>
        </g>
        <g id="Shape21">
            <desc shapeID="21" type="0" basicInfo-basicType="0" basicInfo-roundedRectRadius="12" basicInfo-polygonSides="6" basicInfo-starPoints="5" bounding="rect(-18.5359,-18.5364,37.0719,37.0727)" text="" font-familyName="" font-pixelSize="20" font-bold="0" font-underline="0" font-alignment="1" strokeStyle="0" markerStart="0" markerEnd="0" shadowEnabled="0" shadowOffsetX="0" shadowOffsetY="2" shadowBlur="4" shadowOpacity="160" blurEnabled="0" blurRadius="4" transform="matrix(0.326072,0,0,0.326072,707.84,45.8537)" pers-center="0,0" pers-size="0,0" pers-start="0,0" pers-end="0,0" locked="0" mesh="" flag=""/>
            <path id="shapePath21" d="M706.276,40.0165 C703.055,40.8798 701.14,44.1964 702.003,47.4178 C702.866,50.639 706.183,52.5541 709.404,51.6909 C712.625,50.8279 714.54,47.5109 713.677,44.2898 C712.814,41.0684 709.497,39.1535 706.276,40.0165 M706.405,40.4978 C709.366,39.7044 712.402,41.4579 713.195,44.4185 C713.989,47.3795 712.235,50.4158 709.275,51.209 C706.314,52.0024 703.278,50.2494 702.484,47.2885 C701.691,44.3278 703.444,41.2911 706.405,40.4978 Z" style="stroke:none;fill-rule:nonzero;fill:#e6e6e6;fill-opacity:1;"/>
        </g>
        <g id="Shape22">
            <desc shapeID="22" type="0" basicInfo-basicType="0" basicInfo-roundedRectRadius="12" basicInfo-polygonSides="6" basicInfo-starPoints="5" bounding="rect(-27.2675,-27.2565,54.535,54.513)" text="" font-familyName="" font-pixelSize="20" font-bold="0" font-underline="0" font-alignment="1" strokeStyle="0" markerStart="0" markerEnd="0" shadowEnabled="0" shadowOffsetX="0" shadowOffsetY="2" shadowBlur="4" shadowOpacity="160" blurEnabled="0" blurRadius="4" transform="matrix(0.326072,0,0,0.326072,729.628,40.0168)" pers-center="0,0" pers-size="0,0" pers-start="0,0" pers-end="0,0" locked="0" mesh="" flag=""/>
            <path id="shapePath22" d="M727.324,31.4342 C722.585,32.704 719.772,37.5777 721.041,42.3166 C722.311,47.0555 727.185,49.8695 731.924,48.5996 C736.663,47.3296 739.484,42.4539 738.215,37.715 C736.945,32.9761 732.064,30.1643 727.324,31.4342 M727.453,31.9157 C731.932,30.7156 736.533,33.3653 737.733,37.8441 C738.933,42.3231 736.274,46.9178 731.795,48.118 C727.316,49.3181 722.723,46.6661 721.523,42.1876 C720.322,37.7086 722.975,33.1157 727.453,31.9157 Z" style="stroke:none;fill-rule:nonzero;fill:#e6e6e6;fill-opacity:1;"/>
        </g>
        <g id="Shape23">
            <desc shapeID="23" type="0" basicInfo-basicType="0" basicInfo-roundedRectRadius="12" basicInfo-polygonSides="6" basicInfo-starPoints="5" bounding="rect(-18.5368,-18.5364,37.0736,37.0728)" text="" font-familyName="" font-pixelSize="20" font-bold="0" font-underline="0" font-alignment="1" strokeStyle="0" markerStart="0" markerEnd="0" shadowEnabled="0" shadowOffsetX="0" shadowOffsetY="2" shadowBlur="4" shadowOpacity="160" blurEnabled="0" blurRadius="4" transform="matrix(0.326072,0,0,0.326072,729.624,40.0167)" pers-center="0,0" pers-size="0,0" pers-start="0,0" pers-end="0,0" locked="0" mesh="" flag=""/>
            <path id="shapePath23" d="M728.06,34.1795 C724.839,35.0427 722.924,38.3594 723.787,41.5809 C724.65,44.802 727.967,46.7171 731.188,45.8539 C734.409,44.9908 736.325,41.6737 735.461,38.4526 C734.598,35.2312 731.281,33.3164 728.06,34.1795 M728.189,34.6608 C731.15,33.8674 734.186,35.6207 734.98,38.5814 C735.773,41.5423 734.02,44.579 731.059,45.3723 C728.098,46.1657 725.062,44.4125 724.268,41.4515 C723.475,38.4909 725.228,35.4542 728.189,34.6608 Z" style="stroke:none;fill-rule:nonzero;fill:#e6e6e6;fill-opacity:1;"/>
        </g>
        <g id="Shape24">
            <desc shapeID="24" type="0" basicInfo-basicType="0" basicInfo-roundedRectRadius="12" basicInfo-polygonSides="6" basicInfo-starPoints="5" bounding="rect(-27.257,-27.2663,54.5139,54.5327)" text="" font-familyName="" font-pixelSize="20" font-bold="0" font-underline="0" font-alignment="1" strokeStyle="0" markerStart="0" markerEnd="0" shadowEnabled="0" shadowOffsetX="0" shadowOffsetY="2" shadowBlur="4" shadowOpacity="160" blurEnabled="0" blurRadius="4" transform="matrix(0.326072,0,0,0.326072,745.12,13.1816)" pers-center="0,0" pers-size="0,0" pers-start="0,0" pers-end="0,0" locked="0" mesh="" flag=""/>
            <path id="shapePath24" d="M742.82,4.59516 C738.081,5.86512 735.267,10.7388 736.537,15.4774 C737.807,20.2166 742.683,23.038 747.422,21.7681 C752.161,20.4983 754.973,15.6171 753.703,10.8778 C752.431,6.13981 747.557,3.32613 742.82,4.59541 L742.82,4.59516 M742.949,5.07642 C747.428,3.87634 752.022,6.52865 753.222,11.0068 C754.422,15.4858 751.772,20.0868 747.293,21.2869 C742.814,22.487 738.219,19.8274 737.019,15.3483 C735.819,10.8699 738.471,6.2765 742.95,5.07617 L742.949,5.07642 Z" style="stroke:none;fill-rule:nonzero;fill:#e6e6e6;fill-opacity:1;"/>
        </g>
        <g id="Shape25">
            <desc shapeID="25" type="0" basicInfo-basicType="0" basicInfo-roundedRectRadius="12" basicInfo-polygonSides="6" basicInfo-starPoints="5" bounding="rect(-18.536,-18.5471,37.0721,37.0942)" text="" font-familyName="" font-pixelSize="20" font-bold="0" font-underline="0" font-alignment="1" strokeStyle="0" markerStart="0" markerEnd="0" shadowEnabled="0" shadowOffsetX="0" shadowOffsetY="2" shadowBlur="4" shadowOpacity="160" blurEnabled="0" blurRadius="4" transform="matrix(0.326072,0,0,0.326072,745.12,13.1811)" pers-center="0,0" pers-size="0,0" pers-start="0,0" pers-end="0,0" locked="0" mesh="" flag=""/>
            <path id="shapePath25" d="M743.556,7.34041 C740.335,8.2035 738.42,11.5208 739.283,14.7416 C740.146,17.963 743.465,19.8854 746.686,19.0223 C749.907,18.1592 751.82,14.8346 750.957,11.6135 C750.094,8.39272 746.777,6.47723 743.556,7.34041 M743.685,7.82167 C746.646,7.0282 749.682,8.78152 750.476,11.7425 C751.269,14.7034 749.518,17.7474 746.557,18.5408 C743.596,19.3341 740.558,17.5735 739.765,14.6125 C738.971,11.6516 740.724,8.61505 743.685,7.82167 Z" style="stroke:none;fill-rule:nonzero;fill:#e6e6e6;fill-opacity:1;"/>
        </g>
        <g id="Shape26">
            <desc shapeID="26" type="0" basicInfo-basicType="0" basicInfo-roundedRectRadius="12" basicInfo-polygonSides="6" basicInfo-starPoints="5" bounding="rect(-27.2673,-27.2673,54.5345,54.5345)" text="" font-familyName="" font-pixelSize="20" font-bold="0" font-underline="0" font-alignment="1" strokeStyle="0" markerStart="0" markerEnd="0" shadowEnabled="0" shadowOffsetX="0" shadowOffsetY="2" shadowBlur="4" shadowOpacity="160" blurEnabled="0" blurRadius="4" transform="matrix(0.326072,0,0,0.326072,691.79,73.0726)" pers-center="0,0" pers-size="0,0" pers-start="0,0" pers-end="0,0" locked="0" mesh="" flag=""/>
            <path id="shapePath26" d="M689.485,64.4859 C684.745,65.7558 681.934,70.6367 683.204,75.3759 C684.473,80.1148 689.347,82.9287 694.086,81.6589 C698.825,80.3892 701.647,75.5136 700.377,70.7744 C699.107,66.0355 694.224,63.216 689.485,64.4859 M689.614,64.9675 C694.092,63.7674 698.695,66.4244 699.895,70.9035 C701.095,75.3822 698.436,79.9775 693.957,81.1776 C689.478,82.3777 684.885,79.7257 683.685,75.2469 C682.485,70.7682 685.135,66.1675 689.614,64.9675 Z" style="stroke:none;fill-rule:nonzero;fill:#e6e6e6;fill-opacity:1;"/>
        </g>
        <g id="Shape27">
            <desc shapeID="27" type="0" basicInfo-basicType="0" basicInfo-roundedRectRadius="12" basicInfo-polygonSides="6" basicInfo-starPoints="5" bounding="rect(-18.5361,-18.5364,37.0722,37.0728)" text="" font-familyName="" font-pixelSize="20" font-bold="0" font-underline="0" font-alignment="1" strokeStyle="0" markerStart="0" markerEnd="0" shadowEnabled="0" shadowOffsetX="0" shadowOffsetY="2" shadowBlur="4" shadowOpacity="160" blurEnabled="0" blurRadius="4" transform="matrix(0.326072,0,0,0.326072,691.786,73.0767)" pers-center="0,0" pers-size="0,0" pers-start="0,0" pers-end="0,0" locked="0" mesh="" flag=""/>
            <path id="shapePath27" d="M690.222,67.2395 C687.001,68.1026 685.086,71.4196 685.949,74.641 C686.812,77.8621 690.129,79.777 693.35,78.9139 C696.572,78.0507 698.487,74.734 697.623,71.5129 C696.76,68.2915 693.443,66.3763 690.222,67.2395 M690.351,67.7207 C693.312,66.9274 696.348,68.6807 697.142,71.6416 C697.935,74.6023 696.182,77.639 693.221,78.4323 C690.26,79.2257 687.224,77.4723 686.431,74.5117 C685.637,71.5507 687.39,68.5141 690.351,67.7207 Z" style="stroke:none;fill-rule:nonzero;fill:#e6e6e6;fill-opacity:1;"/>
        </g>
        <g id="Shape28">
            <desc shapeID="28" type="0" basicInfo-basicType="0" basicInfo-roundedRectRadius="12" basicInfo-polygonSides="6" basicInfo-starPoints="5" bounding="rect(-27.2682,-27.2673,54.5364,54.5347)" text="" font-familyName="" font-pixelSize="20" font-bold="0" font-underline="0" font-alignment="1" strokeStyle="0" markerStart="0" markerEnd="0" shadowEnabled="0" shadowOffsetX="0" shadowOffsetY="2" shadowBlur="4" shadowOpacity="160" blurEnabled="0" blurRadius="4" transform="matrix(0.326072,0,0,0.326072,713.574,67.2355)" pers-center="0,0" pers-size="0,0" pers-start="0,0" pers-end="0,0" locked="0" mesh="" flag=""/>
            <path id="shapePath28" d="M711.269,58.6488 C706.529,59.9189 703.717,64.8001 704.987,69.5393 C706.257,74.2782 711.131,77.0918 715.87,75.8218 C720.609,74.5521 723.431,69.6766 722.161,64.9377 C720.891,60.1984 716.008,57.379 711.269,58.6488 M711.398,59.1304 C715.876,57.9305 720.479,60.5876 721.679,65.0667 C722.879,69.5451 720.219,74.1406 715.741,75.3405 C711.262,76.5408 706.669,73.8887 705.469,69.4102 C704.269,64.9311 706.918,60.3306 711.398,59.1304 Z" style="stroke:none;fill-rule:nonzero;fill:#e6e6e6;fill-opacity:1;"/>
        </g>
        <g id="Shape29">
            <desc shapeID="29" type="0" basicInfo-basicType="0" basicInfo-roundedRectRadius="12" basicInfo-polygonSides="6" basicInfo-starPoints="5" bounding="rect(-18.5363,-18.5363,37.0727,37.0727)" text="" font-familyName="" font-pixelSize="20" font-bold="0" font-underline="0" font-alignment="1" strokeStyle="0" markerStart="0" markerEnd="0" shadowEnabled="0" shadowOffsetX="0" shadowOffsetY="2" shadowBlur="4" shadowOpacity="160" blurEnabled="0" blurRadius="4" transform="matrix(0.326072,0,0,0.326072,713.57,67.2399)" pers-center="0,0" pers-size="0,0" pers-start="0,0" pers-end="0,0" locked="0" mesh="" flag=""/>
            <path id="shapePath29" d="M712.006,61.4026 C708.785,62.2658 706.87,65.5829 707.733,68.804 C708.596,72.0251 711.913,73.9402 715.134,73.077 C718.356,72.2139 720.27,68.897 719.407,65.6758 C718.544,62.4547 715.227,60.5396 712.006,61.4026 M712.135,61.8839 C715.096,61.0904 718.132,62.8439 718.926,65.8046 C719.719,68.7655 717.966,71.8019 715.005,72.5951 C712.044,73.3885 709.008,71.6352 708.215,68.6746 C707.421,65.7139 709.175,62.6772 712.135,61.8839 Z" style="stroke:none;fill-rule:nonzero;fill:#e6e6e6;fill-opacity:1;"/>
        </g>
        <g id="Shape30">
            <desc shapeID="30" type="0" basicInfo-basicType="0" basicInfo-roundedRectRadius="12" basicInfo-polygonSides="6" basicInfo-starPoints="5" bounding="rect(-27.2677,-27.2672,54.5355,54.5345)" text="" font-familyName="" font-pixelSize="20" font-bold="0" font-underline="0" font-alignment="1" strokeStyle="0" markerStart="0" markerEnd="0" shadowEnabled="0" shadowOffsetX="0" shadowOffsetY="2" shadowBlur="4" shadowOpacity="160" blurEnabled="0" blurRadius="4" transform="matrix(0.326072,0,0,0.326072,735.358,61.3985)" pers-center="0,0" pers-size="0,0" pers-start="0,0" pers-end="0,0" locked="0" mesh="" flag=""/>
            <path id="shapePath30" d="M733.053,52.8118 C728.313,54.0817 725.502,58.963 726.771,63.7019 C728.041,68.4408 732.915,71.2547 737.654,69.9848 C742.394,68.7148 745.215,63.8392 743.945,59.1003 C742.675,54.3614 737.792,51.542 733.053,52.8118 M733.182,53.2931 C737.66,52.093 742.263,54.7505 743.464,59.2293 C744.664,63.708 742.004,68.3034 737.525,69.5035 C733.046,70.7037 728.453,68.0513 727.253,63.5728 C726.053,59.0941 728.703,54.4931 733.182,53.2931 Z" style="stroke:none;fill-rule:nonzero;fill:#e6e6e6;fill-opacity:1;"/>
        </g>
        <g id="Shape31">
            <desc shapeID="31" type="0" basicInfo-basicType="0" basicInfo-roundedRectRadius="12" basicInfo-polygonSides="6" basicInfo-starPoints="5" bounding="rect(-18.5368,-18.5364,37.0737,37.0728)" text="" font-familyName="" font-pixelSize="20" font-bold="0" font-underline="0" font-alignment="1" strokeStyle="0" markerStart="0" markerEnd="0" shadowEnabled="0" shadowOffsetX="0" shadowOffsetY="2" shadowBlur="4" shadowOpacity="160" blurEnabled="0" blurRadius="4" transform="matrix(0.326072,0,0,0.326072,735.354,61.4025)" pers-center="0,0" pers-size="0,0" pers-start="0,0" pers-end="0,0" locked="0" mesh="" flag=""/>
            <path id="shapePath31" d="M733.79,55.5653 C730.569,56.4285 728.654,59.7455 729.517,62.967 C730.38,66.188 733.697,68.1029 736.918,67.2397 C740.139,66.3766 742.055,63.0599 741.192,59.8387 C740.328,56.6173 737.011,54.7022 733.79,55.5653 M733.919,56.0466 C736.88,55.2532 739.917,57.0065 740.71,59.9675 C741.503,62.9281 739.75,65.965 736.789,66.7584 C733.828,67.5518 730.792,65.7982 729.999,62.8375 C729.205,59.8766 730.958,56.84 733.919,56.0466 Z" style="stroke:none;fill-rule:nonzero;fill:#e6e6e6;fill-opacity:1;"/>
        </g>
        <g id="Shape32">
            <desc shapeID="32" type="0" basicInfo-basicType="0" basicInfo-roundedRectRadius="12" basicInfo-polygonSides="6" basicInfo-starPoints="5" bounding="rect(-8.04166,-2.84018,16.0833,5.68037)" text="" font-familyName="" font-pixelSize="20" font-bold="0" font-underline="0" font-alignment="1" strokeStyle="0" markerStart="0" markerEnd="0" shadowEnabled="0" shadowOffsetX="0" shadowOffsetY="2" shadowBlur="4" shadowOpacity="160" blurEnabled="0" blurRadius="4" transform="matrix(0.326072,0,0,0.326072,724.511,64.4114)" pers-center="0,0" pers-size="0,0" pers-start="0,0" pers-end="0,0" locked="0" mesh="" flag=""/>
            <path id="shapePath32" d="M721.889,64.8559 L722.018,65.3375 L727.133,63.9669 L727.004,63.4853 L721.889,64.8559 Z" style="stroke:none;fill-rule:nonzero;fill:#e6e6e6;fill-opacity:1;"/>
        </g>
        <g id="Shape33">
            <desc shapeID="33" type="0" basicInfo-basicType="0" basicInfo-roundedRectRadius="12" basicInfo-polygonSides="6" basicInfo-starPoints="5" bounding="rect(-8.00629,-2.83075,16.0126,5.6615)" text="" font-familyName="" font-pixelSize="20" font-bold="0" font-underline="0" font-alignment="1" strokeStyle="0" markerStart="0" markerEnd="0" shadowEnabled="0" shadowOffsetX="0" shadowOffsetY="2" shadowBlur="4" shadowOpacity="160" blurEnabled="0" blurRadius="4" transform="matrix(0.326072,0,0,0.326072,702.73,70.2478)" pers-center="0,0" pers-size="0,0" pers-start="0,0" pers-end="0,0" locked="0" mesh="" flag=""/>
            <path id="shapePath33" d="M700.119,70.6892 L700.248,71.1708 L705.341,69.806 L705.212,69.3248 L700.119,70.6892 Z" style="stroke:none;fill-rule:nonzero;fill:#e6e6e6;fill-opacity:1;"/>
        </g>
        <g id="Shape34">
            <desc shapeID="34" type="0" basicInfo-basicType="0" basicInfo-roundedRectRadius="12" basicInfo-polygonSides="6" basicInfo-starPoints="5" bounding="rect(-106.754,-47.3942,213.508,94.7884)" text="" font-familyName="" font-pixelSize="20" font-bold="0" font-underline="0" font-alignment="1" strokeStyle="0" markerStart="0" markerEnd="0" shadowEnabled="0" shadowOffsetX="0" shadowOffsetY="2" shadowBlur="4" shadowOpacity="160" blurEnabled="0" blurRadius="4" transform="matrix(0.326072,0,0,0.326072,715.304,73.6952)" pers-center="0,0" pers-size="0,0" pers-start="0,0" pers-end="0,0" locked="0" mesh="" flag=""/>
            <path id="shapePath34" d="M680.494,75.9475 L680.559,76.1885 L683.967,88.9079 L684.032,89.1491 L684.272,89.0847 L749.872,71.5072 L750.114,71.4426 L750.049,71.2016 L746.641,58.4819 L746.576,58.2413 L746.335,58.3059 L743.68,59.0173 L743.809,59.4986 L746.223,58.8516 L749.503,71.0901 L684.384,88.5386 L681.105,76.3001 L683.557,75.643 L683.428,75.1614 L680.735,75.883 L680.494,75.9475 Z" style="stroke:none;fill-rule:nonzero;fill:#e6e6e6;fill-opacity:1;"/>
        </g>
        <g id="Shape35">
            <desc shapeID="35" type="0" basicInfo-basicType="0" basicInfo-roundedRectRadius="12" basicInfo-polygonSides="6" basicInfo-starPoints="5" bounding="rect(-8.04169,-2.84019,16.0833,5.68037)" text="" font-familyName="" font-pixelSize="20" font-bold="0" font-underline="0" font-alignment="1" strokeStyle="0" markerStart="0" markerEnd="0" shadowEnabled="0" shadowOffsetX="0" shadowOffsetY="2" shadowBlur="4" shadowOpacity="160" blurEnabled="0" blurRadius="4" transform="matrix(0.326072,0,0,0.326072,718.813,43.1472)" pers-center="0,0" pers-size="0,0" pers-start="0,0" pers-end="0,0" locked="0" mesh="" flag=""/>
            <path id="shapePath35" d="M716.191,43.5918 L716.32,44.0733 L721.436,42.7027 L721.307,42.2211 L716.191,43.5918 Z" style="stroke:none;fill-rule:nonzero;fill:#e6e6e6;fill-opacity:1;"/>
        </g>
        <g id="Shape36">
            <desc shapeID="36" type="0" basicInfo-basicType="0" basicInfo-roundedRectRadius="12" basicInfo-polygonSides="6" basicInfo-starPoints="5" bounding="rect(-8.0069,-2.83087,16.0138,5.66174)" text="" font-familyName="" font-pixelSize="20" font-bold="0" font-underline="0" font-alignment="1" strokeStyle="0" markerStart="0" markerEnd="0" shadowEnabled="0" shadowOffsetX="0" shadowOffsetY="2" shadowBlur="4" shadowOpacity="160" blurEnabled="0" blurRadius="4" transform="matrix(0.326072,0,0,0.326072,697.032,48.9836)" pers-center="0,0" pers-size="0,0" pers-start="0,0" pers-end="0,0" locked="0" mesh="" flag=""/>
            <path id="shapePath36" d="M694.422,49.4251 L694.551,49.9067 L699.643,48.5421 L699.514,48.0606 L694.422,49.4251 Z" style="stroke:none;fill-rule:nonzero;fill:#e6e6e6;fill-opacity:1;"/>
        </g>
        <g id="Shape37">
            <desc shapeID="37" type="0" basicInfo-basicType="0" basicInfo-roundedRectRadius="12" basicInfo-polygonSides="6" basicInfo-starPoints="5" bounding="rect(-106.753,-47.3944,213.506,94.7888)" text="" font-familyName="" font-pixelSize="20" font-bold="0" font-underline="0" font-alignment="1" strokeStyle="0" markerStart="0" markerEnd="0" shadowEnabled="0" shadowOffsetX="0" shadowOffsetY="2" shadowBlur="4" shadowOpacity="160" blurEnabled="0" blurRadius="4" transform="matrix(0.326072,0,0,0.326072,706.198,39.7111)" pers-center="0,0" pers-size="0,0" pers-start="0,0" pers-end="0,0" locked="0" mesh="" flag=""/>
            <path id="shapePath37" d="M671.389,41.9635 L671.453,42.2041 L674.862,54.9245 L674.926,55.1651 L675.167,55.1007 L677.859,54.3791 L677.73,53.8979 L675.278,54.555 L671.999,42.3162 L737.117,24.8677 L740.397,37.1065 L737.982,37.7535 L738.111,38.2348 L740.767,37.5232 L741.007,37.4587 L740.943,37.2181 L737.535,24.4977 L737.47,24.2571 L737.229,24.3216 L671.629,41.8991 L671.389,41.9635 Z" style="stroke:none;fill-rule:nonzero;fill:#e6e6e6;fill-opacity:1;"/>
        </g>
    </g>
</svg>
