<?xml version="1.0"?>
<svg version="1.1" xmlns="http://www.w3.org/2000/svg" xmlns:xlink="http://www.w3.org/1999/xlink" width="800" height="160">
    <desc iVinci="yes" version="4.6" gridStep="20" showGrid="no" snapToGrid="no" codePlatform="0"/>
    <g id="Layer1" name="Layer 1" opacity="1">
        <g id="Shape1">
            <desc shapeID="1" type="0" basicInfo-basicType="0" basicInfo-roundedRectRadius="12" basicInfo-polygonSides="6" basicInfo-starPoints="5" bounding="rect(-54.1085,-49.129,108.217,98.258)" text="" font-familyName="" font-pixelSize="20" font-bold="0" font-underline="0" font-alignment="1" strokeStyle="0" markerStart="0" markerEnd="0" shadowEnabled="0" shadowOffsetX="0" shadowOffsetY="2" shadowBlur="4" shadowOpacity="160" blurEnabled="0" blurRadius="4" transform="matrix(1,0,0,1,235.109,68.0899)" pers-center="0,0" pers-size="0,0" pers-start="0,0" pers-end="0,0" locked="0" mesh="" flag=""/>
            <path id="shapePath1" d="M181,117.219 L237.548,18.9609 C244.716,31.7699 253.409,47.9979 263.633,67.6429 L289.217,116.92 L181,117.219 L181,117.219 M240.234,78.9909 C240.434,80.5849 240.168,82.0119 239.438,83.2709 C238.574,84.7329 237.347,85.4609 235.754,85.4609 C233.763,85.4609 232.236,84.4019 231.175,82.2759 C230.976,81.0149 231.076,79.7879 231.473,78.5919 C232.004,77.1329 232.899,76.2369 234.161,75.9039 C234.559,75.8379 234.957,75.8039 235.356,75.8039 C237.413,75.8059 239.039,76.8689 240.234,78.9909 Z" style="stroke:none;fill-rule:nonzero;fill:#ffffff;fill-opacity:1;"/>
        </g>
        <g id="Shape2">
            <desc shapeID="2" type="0" basicInfo-basicType="0" basicInfo-roundedRectRadius="12" basicInfo-polygonSides="6" basicInfo-starPoints="5" bounding="rect(-46.8495,-49.4951,93.699,98.9901)" text="" font-familyName="" font-pixelSize="20" font-bold="0" font-underline="0" font-alignment="1" strokeStyle="0" markerStart="0" markerEnd="0" shadowEnabled="0" shadowOffsetX="0" shadowOffsetY="2" shadowBlur="4" shadowOpacity="160" blurEnabled="0" blurRadius="4" transform="matrix(1,0,0,1,338.055,67.2921)" pers-center="0,0" pers-size="0,0" pers-start="0,0" pers-end="0,0" locked="0" mesh="" flag=""/>
            <path id="shapePath2" d="M384.904,115.807 C369.371,116.077 353.837,116.314 338.303,116.518 C319.715,116.787 304.016,116.854 291.205,116.721 L291.205,18.0649 C294.921,18.5309 306.635,18.4629 326.347,17.8659 C341.877,17.4679 353.59,18.7959 361.488,21.8489 C372.77,26.1639 379.97,34.5919 383.092,47.1359 C383.156,47.9989 383.191,48.8949 383.191,49.8249 C383.191,59.0509 378.744,67.1159 369.85,74.0179 C367.459,75.8769 364.373,77.4029 360.59,78.5969 C357.271,79.5279 353.95,80.4239 350.633,81.2859 L384.904,115.807 M343.669,48.3299 C343.801,48.7939 343.868,49.2929 343.868,49.8229 C343.868,51.2829 343.402,52.4939 342.475,53.4559 C341.545,54.4179 340.384,54.8989 338.991,54.8989 C336.999,54.8989 335.439,53.8399 334.311,51.7149 C333.847,48.7279 334.71,46.6049 336.9,45.3439 C337.498,45.0789 338.095,44.9449 338.692,44.9449 C341.212,44.9449 342.872,46.0739 343.669,48.3299 M366.349,108.775 C361.509,108.841 354.379,108.64 344.962,108.173 L344.962,107.269 C346.82,107.001 349.607,106.899 353.325,106.969 C357.041,107.035 359.828,106.9 361.687,106.569 L344.962,89.4449 L347.051,89.4479 L366.349,108.775 M374.529,52.2129 C374.33,55.4649 373.135,58.6339 370.946,61.7189 C368.755,64.8059 366.101,67.0449 362.982,68.4389 L354.023,72.4219 L354.023,70.2299 C365.969,66.3819 372.373,60.3739 373.236,52.2119 L374.529,52.2119 L374.529,52.2129 Z" style="stroke:none;fill-rule:nonzero;fill:#ffffff;fill-opacity:1;"/>
        </g>
        <g id="Shape3">
            <desc shapeID="3" type="0" basicInfo-basicType="0" basicInfo-roundedRectRadius="12" basicInfo-polygonSides="6" basicInfo-starPoints="5" bounding="rect(-46.79,-48.333,93.58,96.6661)" text="" font-familyName="" font-pixelSize="20" font-bold="0" font-underline="0" font-alignment="1" strokeStyle="0" markerStart="0" markerEnd="0" shadowEnabled="0" shadowOffsetX="0" shadowOffsetY="2" shadowBlur="4" shadowOpacity="160" blurEnabled="0" blurRadius="4" transform="matrix(1,0,0,1,432.467,67.5919)" pers-center="0,0" pers-size="0,0" pers-start="0,0" pers-end="0,0" locked="0" mesh="" flag=""/>
            <path id="shapePath3" d="M479.257,84.3659 C476.005,93.6589 470.049,101.257 461.388,107.165 C452.728,113.07 443.484,115.99 433.662,115.924 C424.768,115.924 416.473,113.551 408.774,108.806 C401.074,104.061 395.068,97.6399 390.754,89.5429 C387.37,83.1709 385.677,75.7739 385.677,67.3429 C385.677,59.4449 387.203,52.5449 390.257,46.6359 C394.57,38.1399 400.66,31.4539 408.525,26.5759 C416.39,21.6969 424.967,19.2589 434.259,19.2589 C436.914,19.2589 439.569,19.4589 442.224,19.8559 C449.391,20.9849 456.094,23.8059 462.333,28.3159 C468.837,33.0299 473.647,38.7049 476.767,45.3399 C468.339,50.4519 455.695,58.0829 438.839,68.2379 C453.441,74.6789 466.914,80.0539 479.257,84.3659 L479.257,84.3659 M464.724,89.5449 C464.724,91.2709 463.629,93.1629 461.438,95.2189 C459.712,96.8109 457.721,98.1709 455.465,99.3009 L454.569,98.6039 C455.963,97.4759 457.356,96.3139 458.751,95.1199 C460.476,93.6609 461.637,92.1999 462.235,90.7399 C459.115,89.2139 454.833,87.4219 449.393,85.3639 C442.823,82.8429 438.476,81.1169 436.352,80.1889 L436.352,78.5929 L464.724,89.5449 Z" style="stroke:none;fill-rule:nonzero;fill:#ffffff;fill-opacity:1;"/>
        </g>
        <g id="Shape4">
            <desc shapeID="4" type="0" basicInfo-basicType="0" basicInfo-roundedRectRadius="12" basicInfo-polygonSides="6" basicInfo-starPoints="5" bounding="rect(-54.108,-49.129,108.216,98.258)" text="" font-familyName="" font-pixelSize="20" font-bold="0" font-underline="0" font-alignment="1" strokeStyle="0" markerStart="0" markerEnd="0" shadowEnabled="0" shadowOffsetX="0" shadowOffsetY="2" shadowBlur="4" shadowOpacity="160" blurEnabled="0" blurRadius="4" transform="matrix(1,0,0,1,518.831,68.0899)" pers-center="0,0" pers-size="0,0" pers-start="0,0" pers-end="0,0" locked="0" mesh="" flag=""/>
            <path id="shapePath4" d="M464.723,117.219 L521.27,18.9609 C528.437,31.7699 537.131,47.9979 547.354,67.6429 L572.939,116.92 L464.723,117.219 L464.723,117.219 M523.957,78.9909 C524.156,80.5849 523.889,82.0119 523.16,83.2709 C522.296,84.7329 521.07,85.4609 519.476,85.4609 C517.485,85.4609 515.958,84.4019 514.895,82.2759 C514.696,81.0149 514.795,79.7879 515.194,78.5919 C515.724,77.1329 516.621,76.2369 517.882,75.9039 C518.281,75.8379 518.679,75.8039 519.076,75.8039 C521.134,75.8059 522.762,76.8689 523.957,78.9909 M559.598,109.256 L539.187,109.654 L539.187,108.36 L556.212,107.862 C555.48,105.472 553.856,101.987 551.332,97.4089 C548.677,92.5649 546.953,88.9469 546.156,86.5589 L547.35,85.8619 L559.598,109.256 Z" style="stroke:none;fill-rule:nonzero;fill:#ffffff;fill-opacity:1;"/>
        </g>
        <g id="Shape5">
            <desc shapeID="5" type="0" basicInfo-basicType="0" basicInfo-roundedRectRadius="12" basicInfo-polygonSides="6" basicInfo-starPoints="5" bounding="rect(-52.662,-49.6265,105.324,99.253)" text="" font-familyName="" font-pixelSize="20" font-bold="0" font-underline="0" font-alignment="1" strokeStyle="0" markerStart="0" markerEnd="0" shadowEnabled="0" shadowOffsetX="0" shadowOffsetY="2" shadowBlur="4" shadowOpacity="160" blurEnabled="0" blurRadius="4" transform="matrix(1,0,0,1,627.191,67.6914)" pers-center="0,0" pers-size="0,0" pers-start="0,0" pers-end="0,0" locked="0" mesh="" flag=""/>
            <path id="shapePath5" d="M674.48,91.3869 C669.503,101.588 662.001,108.708 651.981,112.749 C644.349,115.795 634.062,117.318 621.119,117.318 C617.601,117.318 612.226,117.184 604.992,116.92 C597.758,116.655 592.381,116.522 588.864,116.522 C583.423,116.522 578.644,116.787 574.529,117.318 L574.828,18.0649 C578.81,18.4629 583.354,18.6629 588.464,18.6629 C591.982,18.6629 597.391,18.5629 604.693,18.3649 C611.993,18.1649 617.436,18.0659 621.018,18.0659 C632.101,18.0659 641.162,19.2589 648.196,21.6419 C657.221,24.6899 664.39,30.0539 669.699,37.7389 C676.47,45.3559 679.853,55.2579 679.853,67.4439 C679.854,76.1219 678.063,84.1029 674.48,91.3869 M634.061,78.5929 C634.194,79.0589 634.261,79.5549 634.261,80.0879 C634.261,81.2819 633.878,82.3609 633.116,83.3229 C632.353,84.2849 631.375,84.8329 630.18,84.9639 C627.391,84.4359 625.666,83.4059 625.003,81.8799 C624.936,81.4149 624.904,80.9839 624.904,80.5859 C624.904,78.2619 625.964,76.5699 628.089,75.5069 C628.487,75.4419 628.886,75.4089 629.284,75.4089 C631.274,75.4089 632.867,76.4699 634.061,78.5929 M672.39,68.8369 C671.393,76.9349 669.069,84.0369 665.421,90.1399 C661.172,97.3089 655.53,102.254 648.495,104.974 C644.578,106.5 641.69,107.529 639.836,108.06 C636.584,108.99 633.529,109.486 630.677,109.555 L630.178,108.36 C645.773,105.638 656.594,99.9629 662.633,91.3369 C666.748,85.4299 669.404,77.9319 670.598,68.8379 L672.39,68.8379 L672.39,68.8369 Z" style="stroke:none;fill-rule:nonzero;fill:#ffffff;fill-opacity:1;"/>
        </g>
        <g id="Shape6">
            <desc shapeID="6" type="0" basicInfo-basicType="0" basicInfo-roundedRectRadius="12" basicInfo-polygonSides="6" basicInfo-starPoints="5" bounding="rect(-48.283,-49.578,96.566,99.156)" text="" font-familyName="" font-pixelSize="20" font-bold="0" font-underline="0" font-alignment="1" strokeStyle="0" markerStart="0" markerEnd="0" shadowEnabled="0" shadowOffsetX="0" shadowOffsetY="2" shadowBlur="4" shadowOpacity="160" blurEnabled="0" blurRadius="4" transform="matrix(1,0,0,1,732.717,67.6429)" pers-center="0,0" pers-size="0,0" pers-start="0,0" pers-end="0,0" locked="0" mesh="" flag=""/>
            <path id="shapePath6" d="M781,63.5609 L726.844,63.5609 C726.246,65.1689 725.948,67.0459 725.948,69.1879 C725.948,71.3319 726.246,73.1389 726.844,74.6129 L746.057,74.6129 L746.057,87.0559 L726.844,87.9519 L726.844,97.7089 L780.702,98.1069 L780.702,117.221 L684.434,117.221 L684.434,18.0649 L780.702,18.0649 L781,63.5609 M732.916,27.5219 L693.792,27.8199 L693.494,60.2749 L692.101,60.2749 L692.101,25.7309 C701.259,25.5999 714.863,25.7659 732.917,26.2289 L732.917,27.5219 L732.916,27.5219 Z" style="stroke:none;fill-rule:nonzero;fill:#ffffff;fill-opacity:1;"/>
        </g>
        <g id="Shape7">
            <desc shapeID="7" type="0" basicInfo-basicType="0" basicInfo-roundedRectRadius="12" basicInfo-polygonSides="6" basicInfo-starPoints="5" bounding="rect(-54.1085,-49.129,108.217,98.258)" text="" font-familyName="" font-pixelSize="20" font-bold="0" font-underline="0" font-alignment="1" strokeStyle="0" markerStart="0" markerEnd="0" shadowEnabled="0" shadowOffsetX="0" shadowOffsetY="2" shadowBlur="4" shadowOpacity="160" blurEnabled="0" blurRadius="4" transform="matrix(1,0,0,1,235.109,68.0899)" pers-center="0,0" pers-size="0,0" pers-start="0,0" pers-end="0,0" locked="0" mesh="" flag=""/>
            <path id="shapePath7" d="M181,117.219 L237.548,18.9609 C244.716,31.7699 253.409,47.9979 263.633,67.6429 L289.217,116.92 L181,117.219 L181,117.219 M284.092,114.033 L237.544,25.3589 L186.167,114.233 L284.092,114.033 M240.234,78.9909 C240.434,80.5849 240.168,82.0119 239.438,83.2709 C238.574,84.7329 237.347,85.4609 235.754,85.4609 C233.763,85.4609 232.236,84.4019 231.175,82.2759 C230.976,81.0149 231.076,79.7879 231.473,78.5919 C232.004,77.1329 232.899,76.2369 234.161,75.9039 C234.559,75.8379 234.957,75.8039 235.356,75.8039 C237.413,75.8059 239.039,76.8689 240.234,78.9909 M275.875,109.256 L255.465,109.654 L255.465,108.36 L272.488,107.862 C271.757,105.472 270.132,101.987 267.611,97.4089 C264.956,92.5649 263.23,88.9469 262.434,86.5589 L263.629,85.8619 L275.875,109.256 Z" style="stroke:none;fill-rule:nonzero;fill:#141414;fill-opacity:1;"/>
        </g>
        <g id="Shape8">
            <desc shapeID="8" type="0" basicInfo-basicType="0" basicInfo-roundedRectRadius="12" basicInfo-polygonSides="6" basicInfo-starPoints="5" bounding="rect(-46.8495,-49.4951,93.699,98.9901)" text="" font-familyName="" font-pixelSize="20" font-bold="0" font-underline="0" font-alignment="1" strokeStyle="0" markerStart="0" markerEnd="0" shadowEnabled="0" shadowOffsetX="0" shadowOffsetY="2" shadowBlur="4" shadowOpacity="160" blurEnabled="0" blurRadius="4" transform="matrix(1,0,0,1,338.055,67.2921)" pers-center="0,0" pers-size="0,0" pers-start="0,0" pers-end="0,0" locked="0" mesh="" flag=""/>
            <path id="shapePath8" d="M384.904,115.807 C369.371,116.077 353.837,116.314 338.303,116.518 C319.715,116.787 304.016,116.854 291.205,116.721 L291.205,18.0649 C294.921,18.5309 306.635,18.4629 326.347,17.8659 C341.877,17.4679 353.59,18.7959 361.488,21.8489 C372.77,26.1639 379.97,34.5919 383.092,47.1359 C383.156,47.9989 383.191,48.8949 383.191,49.8249 C383.191,59.0509 378.744,67.1159 369.85,74.0179 C367.459,75.8769 364.373,77.4029 360.59,78.5969 C357.271,79.5279 353.95,80.4239 350.633,81.2859 L384.904,115.807 M380.006,47.1049 C377.283,36.9629 371.708,29.8689 363.28,25.8249 C356.775,22.7769 347.651,21.2519 335.903,21.2519 C332.651,21.2519 327.74,21.3999 321.169,21.6989 C314.598,21.9989 309.753,22.1479 306.633,22.1479 C301.856,22.1479 297.707,21.9159 294.19,21.4509 L294.19,113.337 L377.913,113.337 L346.427,81.6099 C346.047,81.1459 345.859,80.5829 345.859,79.9189 C345.792,79.0569 346.092,78.4939 346.755,78.2299 C353.789,78.2299 360.593,76.0749 367.164,71.7649 C376.321,65.8669 380.603,57.6449 380.006,47.1049 L380.006,47.1049 M343.669,48.3299 C343.801,48.7939 343.868,49.2929 343.868,49.8229 C343.868,51.2829 343.402,52.4939 342.475,53.4559 C341.545,54.4179 340.384,54.8989 338.991,54.8989 C336.999,54.8989 335.439,53.8399 334.311,51.7149 C333.847,48.7279 334.71,46.6049 336.9,45.3439 C337.498,45.0789 338.095,44.9449 338.692,44.9449 C341.212,44.9449 342.872,46.0739 343.669,48.3299 M366.349,108.775 C361.509,108.841 354.379,108.64 344.962,108.173 L344.962,107.269 C346.82,107.001 349.607,106.899 353.325,106.969 C357.041,107.035 359.828,106.9 361.687,106.569 L344.962,89.4449 L347.051,89.4479 L366.349,108.775 M374.529,52.2129 C374.33,55.4649 373.135,58.6339 370.946,61.7189 C368.755,64.8059 366.101,67.0449 362.982,68.4389 L354.023,72.4219 L354.023,70.2299 C365.969,66.3819 372.373,60.3739 373.236,52.2119 L374.529,52.2119 L374.529,52.2129 Z" style="stroke:none;fill-rule:nonzero;fill:#141414;fill-opacity:1;"/>
        </g>
        <g id="Shape9">
            <desc shapeID="9" type="0" basicInfo-basicType="0" basicInfo-roundedRectRadius="12" basicInfo-polygonSides="6" basicInfo-starPoints="5" bounding="rect(-46.79,-48.333,93.58,96.6661)" text="" font-familyName="" font-pixelSize="20" font-bold="0" font-underline="0" font-alignment="1" strokeStyle="0" markerStart="0" markerEnd="0" shadowEnabled="0" shadowOffsetX="0" shadowOffsetY="2" shadowBlur="4" shadowOpacity="160" blurEnabled="0" blurRadius="4" transform="matrix(1,0,0,1,432.467,67.5919)" pers-center="0,0" pers-size="0,0" pers-start="0,0" pers-end="0,0" locked="0" mesh="" flag=""/>
            <path id="shapePath9" d="M479.257,84.3659 C476.005,93.6589 470.049,101.257 461.388,107.165 C452.728,113.07 443.484,115.99 433.662,115.924 C424.768,115.924 416.473,113.551 408.774,108.806 C401.074,104.061 395.068,97.6399 390.754,89.5429 C387.37,83.1709 385.677,75.7739 385.677,67.3429 C385.677,59.4449 387.203,52.5449 390.257,46.6359 C394.57,38.1399 400.66,31.4539 408.525,26.5759 C416.39,21.6969 424.967,19.2589 434.259,19.2589 C436.914,19.2589 439.569,19.4589 442.224,19.8559 C449.391,20.9849 456.094,23.8059 462.333,28.3159 C468.837,33.0299 473.647,38.7049 476.767,45.3399 C468.339,50.4519 455.695,58.0829 438.839,68.2379 C453.441,74.6789 466.914,80.0539 479.257,84.3659 L479.257,84.3659 M474.044,86.2519 C458.654,80.4489 444.657,74.6449 432.055,68.8439 C437.235,65.8599 444.042,61.7469 452.477,56.5039 C462.571,50.1369 469.246,45.9569 472.5,43.9649 C469.38,38.2539 464.867,33.5049 458.959,29.7189 C453.582,26.2649 447.574,23.9069 440.938,22.6429 C439.146,22.5119 437.386,22.4439 435.661,22.4439 C426.898,22.4439 418.933,24.3699 411.765,28.2179 C404.198,32.3339 398.322,38.1739 394.141,45.7399 C390.558,52.1789 388.766,59.4449 388.766,67.5419 C388.766,78.5599 391.851,87.7179 398.019,95.0179 C402.73,100.594 408.219,104.956 414.488,108.109 C420.756,111.262 427.307,112.838 434.142,112.838 C438.918,112.838 443.595,112.043 448.172,110.455 C454.209,108.407 459.583,105.331 464.293,101.229 C469.666,96.6029 472.914,91.6079 474.044,86.2519 M464.724,89.5449 C464.724,91.2709 463.629,93.1629 461.438,95.2189 C459.712,96.8109 457.721,98.1709 455.465,99.3009 L454.569,98.6039 C455.963,97.4759 457.356,96.3139 458.751,95.1199 C460.476,93.6609 461.637,92.1999 462.235,90.7399 C459.115,89.2139 454.833,87.4219 449.393,85.3639 C442.823,82.8429 438.476,81.1169 436.352,80.1889 L436.352,78.5929 L464.724,89.5449 Z" style="stroke:none;fill-rule:nonzero;fill:#141414;fill-opacity:1;"/>
        </g>
        <g id="Shape10">
            <desc shapeID="10" type="0" basicInfo-basicType="0" basicInfo-roundedRectRadius="12" basicInfo-polygonSides="6" basicInfo-starPoints="5" bounding="rect(-54.108,-49.129,108.216,98.258)" text="" font-familyName="" font-pixelSize="20" font-bold="0" font-underline="0" font-alignment="1" strokeStyle="0" markerStart="0" markerEnd="0" shadowEnabled="0" shadowOffsetX="0" shadowOffsetY="2" shadowBlur="4" shadowOpacity="160" blurEnabled="0" blurRadius="4" transform="matrix(1,0,0,1,518.831,68.0899)" pers-center="0,0" pers-size="0,0" pers-start="0,0" pers-end="0,0" locked="0" mesh="" flag=""/>
            <path id="shapePath10" d="M464.723,117.219 L521.27,18.9609 C528.437,31.7699 537.131,47.9979 547.354,67.6429 L572.939,116.92 L464.723,117.219 L464.723,117.219 M567.814,114.033 L521.265,25.3589 L469.888,114.233 L567.814,114.033 M523.957,78.9909 C524.156,80.5849 523.889,82.0119 523.16,83.2709 C522.296,84.7329 521.07,85.4609 519.476,85.4609 C517.485,85.4609 515.958,84.4019 514.895,82.2759 C514.696,81.0149 514.795,79.7879 515.194,78.5919 C515.724,77.1329 516.621,76.2369 517.882,75.9039 C518.281,75.8379 518.679,75.8039 519.076,75.8039 C521.134,75.8059 522.762,76.8689 523.957,78.9909 M559.598,109.256 L539.187,109.654 L539.187,108.36 L556.212,107.862 C555.48,105.472 553.856,101.987 551.332,97.4089 C548.677,92.5649 546.953,88.9469 546.156,86.5589 L547.35,85.8619 L559.598,109.256 Z" style="stroke:none;fill-rule:nonzero;fill:#141414;fill-opacity:1;"/>
        </g>
        <g id="Shape11">
            <desc shapeID="11" type="0" basicInfo-basicType="0" basicInfo-roundedRectRadius="12" basicInfo-polygonSides="6" basicInfo-starPoints="5" bounding="rect(-52.6625,-49.6265,105.325,99.253)" text="" font-familyName="" font-pixelSize="20" font-bold="0" font-underline="0" font-alignment="1" strokeStyle="0" markerStart="0" markerEnd="0" shadowEnabled="0" shadowOffsetX="0" shadowOffsetY="2" shadowBlur="4" shadowOpacity="160" blurEnabled="0" blurRadius="4" transform="matrix(1,0,0,1,627.192,67.6914)" pers-center="0,0" pers-size="0,0" pers-start="0,0" pers-end="0,0" locked="0" mesh="" flag=""/>
            <path id="shapePath11" d="M674.48,91.3869 C669.503,101.588 662.001,108.708 651.981,112.749 C644.349,115.795 634.062,117.318 621.119,117.318 C617.601,117.318 612.226,117.184 604.992,116.92 C597.758,116.655 592.381,116.522 588.864,116.522 C583.423,116.522 578.644,116.787 574.529,117.318 L574.828,18.0649 C580.393,18.1489 584.477,18.3479 589.588,18.3479 C593.105,18.3479 597.471,18.3309 605.08,18.3479 C612.382,18.3629 617.437,18.0649 621.019,18.0649 C632.102,18.0649 641.163,19.2579 648.197,21.6409 C657.222,24.6879 664.391,30.0519 669.7,37.7379 C676.471,45.3539 679.854,55.2569 679.854,67.4429 C679.854,76.1219 678.063,84.1029 674.48,91.3869 M675.377,54.7309 C673.052,46.7179 668.357,39.6479 661.29,33.5229 C654.221,27.3969 646.571,23.6039 638.343,22.1469 L619.274,21.3449 L577.515,21.4499 L577.515,114.231 C580.966,113.834 584.882,113.634 589.261,113.634 C592.978,113.634 598.652,113.834 606.285,114.231 C613.916,114.63 619.625,114.829 623.408,114.829 C641.128,114.829 654.203,110.558 662.631,102.015 C672.389,92.0159 677.266,80.5909 677.266,67.7429 C677.267,63.3729 676.635,59.0359 675.377,54.7309 M634.061,78.5929 C634.194,79.0589 634.261,79.5549 634.261,80.0879 C634.261,81.2819 633.878,82.3609 633.116,83.3229 C632.353,84.2849 631.375,84.8329 630.18,84.9639 C627.391,84.4359 625.666,83.4059 625.003,81.8799 C624.936,81.4149 624.904,80.9839 624.904,80.5859 C624.904,78.2619 625.964,76.5699 628.089,75.5069 C628.487,75.4419 628.886,75.4089 629.284,75.4089 C631.274,75.4089 632.867,76.4699 634.061,78.5929 M672.39,68.8369 C671.393,76.9349 669.069,84.0369 665.421,90.1399 C661.172,97.3089 655.53,102.254 648.495,104.974 C644.578,106.5 641.69,107.529 639.836,108.06 C636.584,108.99 633.529,109.486 630.677,109.555 L630.178,108.36 C645.773,105.638 656.594,99.9629 662.633,91.3369 C666.748,85.4299 669.404,77.9319 670.598,68.8379 L672.39,68.8379 L672.39,68.8369 Z" style="stroke:none;fill-rule:nonzero;fill:#141414;fill-opacity:1;"/>
        </g>
        <g id="Shape12">
            <desc shapeID="12" type="0" basicInfo-basicType="0" basicInfo-roundedRectRadius="12" basicInfo-polygonSides="6" basicInfo-starPoints="5" bounding="rect(-48.283,-49.578,96.566,99.156)" text="" font-familyName="" font-pixelSize="20" font-bold="0" font-underline="0" font-alignment="1" strokeStyle="0" markerStart="0" markerEnd="0" shadowEnabled="0" shadowOffsetX="0" shadowOffsetY="2" shadowBlur="4" shadowOpacity="160" blurEnabled="0" blurRadius="4" transform="matrix(1,0,0,1,732.717,67.6429)" pers-center="0,0" pers-size="0,0" pers-start="0,0" pers-end="0,0" locked="0" mesh="" flag=""/>
            <path id="shapePath12" d="M781,63.5609 L726.844,63.5609 C726.246,65.1689 725.948,67.0459 725.948,69.1879 C725.948,71.3319 726.246,73.1389 726.844,74.6129 L746.057,74.6129 L746.057,87.0559 L726.844,87.9519 L726.844,97.7089 L780.702,98.1069 L780.702,117.221 L684.434,117.221 L684.434,18.0649 L780.702,18.0649 L781,63.5609 M777.914,114.332 L777.914,101.392 L724.753,101.392 C723.757,97.8079 723.622,92.1329 724.355,84.3669 L743.269,84.3669 L743.269,77.6989 L724.06,77.6989 C723.593,76.2399 723.294,74.5129 723.159,72.5219 C723.024,71.2609 722.994,69.4349 723.06,67.0459 C723.125,64.3919 723.159,62.5659 723.159,61.5699 L724.056,60.6739 L777.913,60.6739 L777.913,21.4509 L687.219,21.4509 L687.219,114.332 L777.914,114.332 M732.916,27.5219 L693.792,27.8199 L693.494,60.2749 L692.101,60.2749 L692.101,25.7309 C701.259,25.5999 714.863,25.7659 732.917,26.2289 L732.917,27.5219 L732.916,27.5219 Z" style="stroke:none;fill-rule:nonzero;fill:#141414;fill-opacity:1;"/>
        </g>
        <g id="Shape13">
            <desc shapeID="13" type="0" basicInfo-basicType="0" basicInfo-roundedRectRadius="12" basicInfo-polygonSides="6" basicInfo-starPoints="5" bounding="rect(-86.6852,-61.6675,173.37,123.335)" text="" font-familyName="" font-pixelSize="20" font-bold="0" font-underline="0" font-alignment="1" strokeStyle="0" markerStart="0" markerEnd="0" shadowEnabled="0" shadowOffsetX="0" shadowOffsetY="2" shadowBlur="4" shadowOpacity="160" blurEnabled="0" blurRadius="4" transform="matrix(1,0,0,1,91.93,80.8227)" pers-center="0,0" pers-size="0,0" pers-start="0,0" pers-end="0,0" locked="0" mesh="" flag=""/>
            <path id="shapePath13" d="M86.5739,115.01 L85.2654,55.7304 L53.4011,116.318 L50.1296,116.318 L39.7917,55.207 L17.6765,115.01 L5.24484,115.01 L39.3991,19.1552 L46.0075,19.1552 L56.4109,86.4169 L90.1726,19.1552 L97.0427,19.1552 L99.7253,115.01 L86.5739,115.01 M108.998,142.49 L108.998,129.993 C117.111,129.993 122.869,128.772 126.271,126.329 C129.674,123.886 132.117,120.222 133.6,115.337 C127.449,115.337 123.371,109.274 121.364,97.1474 L112.597,44.9345 L126.141,44.9345 L133.861,95.7734 C134.603,100.79 136.391,103.298 139.227,103.298 L164.482,44.9345 L178.615,44.9345 L143.479,123.385 C140.513,130.015 136.566,134.857 131.637,137.91 C126.708,140.963 119.161,142.49 108.998,142.49 Z" style="stroke:#323232;stroke-opacity:1;stroke-width:1;stroke-linejoin:miter;stroke-miterlimit:2;stroke-linecap:round;fill-rule:nonzero;fill:#dddddd;fill-opacity:1;"/>
        </g>
    </g>
</svg>
