<?xml version="1.0"?>
<svg version="1.1" xmlns="http://www.w3.org/2000/svg" xmlns:xlink="http://www.w3.org/1999/xlink" width="190" height="65">
    <desc iVinci="yes" version="4.6" gridStep="20" showGrid="no" snapToGrid="no" codePlatform="0"/>
    <g id="Layer1" name="Layer 1" opacity="1">
        <g id="Shape1">
            <desc shapeID="1" type="0" basicInfo-basicType="0" basicInfo-roundedRectRadius="12" basicInfo-polygonSides="6" basicInfo-starPoints="5" bounding="rect(-22.5,-27.2812,45,54.5625)" text="" font-familyName="" font-pixelSize="20" font-bold="0" font-underline="0" font-alignment="1" strokeStyle="0" markerStart="0" markerEnd="0" shadowEnabled="0" shadowOffsetX="0" shadowOffsetY="2" shadowBlur="4" shadowOpacity="160" blurEnabled="0" blurRadius="4" transform="matrix(1,0,0,1,33.5829,30.6701)" pers-center="0,0" pers-size="0,0" pers-start="0,0" pers-end="0,0" locked="0" mesh="" flag=""/>
            <path id="shapePath1" d="M23.4482,31.3786 C24.1937,30.6617 24.4231,30.203 24.4231,30.203 L24.4804,30.203 C24.4804,30.203 24.4517,30.8338 24.4517,31.4646 L24.4517,44.5323 L19.9811,44.5323 L19.9811,46.9958 L31.6176,46.9958 L31.6176,44.5323 L27.2043,44.5323 L27.2043,26.7646 L24.6835,26.7646 L19.8401,31.4646 L21.5581,33.2423 L23.4482,31.3786 L23.4482,31.3786 M33.9736,45.4499 C33.9736,45.9397 34.0309,46.4534 34.1169,46.9958 L47.156,46.9958 L47.156,44.5323 L37.1276,44.5323 C37.1826,39.9184 46.8406,38.8885 46.8406,32.2364 C46.8406,28.7406 44.1788,26.4157 40.4513,26.4157 C35.8947,26.4157 34.0596,30.2555 34.0596,30.2555 L36.1503,31.6581 C36.1503,31.6581 37.584,29.0776 40.2506,29.0776 C42.37,29.0776 43.8873,30.4228 43.8873,32.4299 C43.8873,37.1992 33.9736,38.2314 33.9736,45.4499 L33.9736,45.4499 M24.0264,3.38888 L19.2476,3.38888 L19.2476,11.3576 L24.0264,11.3576 L24.0264,3.38888 M50.3101,6.17494 L50.3101,13.7494 L40.7524,13.7494 L40.7524,6.17494 L26.4158,6.17494 L26.4158,13.7446 L16.8629,13.7446 L16.8629,6.17494 L11.0829,6.17494 L11.0829,57.9513 L56.0829,57.9513 L56.0829,6.17494 L50.3101,6.17494 M53.6959,55.5595 L13.4747,55.5595 L13.4747,19.9189 L53.6959,19.9189 L53.6959,55.5595 M47.9206,3.38888 L43.1418,3.38888 L43.1418,11.3576 L47.9206,11.3576 L47.9206,3.38888 Z" style="stroke:#ffffff;stroke-opacity:1;stroke-width:1;stroke-linejoin:miter;stroke-miterlimit:2;stroke-linecap:butt;fill-rule:nonzero;fill:#efefef;fill-opacity:1;"/>
        </g>
        <g id="Shape2">
            <desc shapeID="2" type="0" basicInfo-basicType="0" basicInfo-roundedRectRadius="12" basicInfo-polygonSides="6" basicInfo-starPoints="5" bounding="rect(-51.2372,-33.7269,102.474,67.4537)" text="" font-familyName="" font-pixelSize="20" font-bold="0" font-underline="0" font-alignment="1" strokeStyle="0" markerStart="0" markerEnd="0" shadowEnabled="0" shadowOffsetX="0" shadowOffsetY="2" shadowBlur="4" shadowOpacity="160" blurEnabled="0" blurRadius="4" transform="matrix(1,0,0,1,121.397,37.1157)" pers-center="0,0" pers-size="0,0" pers-start="0,0" pers-end="0,0" locked="0" mesh="" flag=""/>
            <path id="shapePath2" d="M0,0 Z" style="stroke:#000000;stroke-opacity:1;stroke-width:0;stroke-linejoin:miter;stroke-miterlimit:2;stroke-linecap:butt;fill-rule:evenodd;fill:#efefef;fill-opacity:1;"/>
        </g>
        <g id="Shape3">
            <desc shapeID="3" type="0" basicInfo-basicType="0" basicInfo-roundedRectRadius="12" basicInfo-polygonSides="6" basicInfo-starPoints="5" bounding="rect(-51.2372,-9.07031,102.474,18.1406)" text="" font-familyName="" font-pixelSize="20" font-bold="0" font-underline="0" font-alignment="1" strokeStyle="0" markerStart="0" markerEnd="0" shadowEnabled="0" shadowOffsetX="0" shadowOffsetY="2" shadowBlur="4" shadowOpacity="160" blurEnabled="0" blurRadius="4" transform="matrix(1,0,0,1,116,48.881)" pers-center="0,0" pers-size="0,0" pers-start="0,0" pers-end="0,0" locked="0" mesh="" flag=""/>
            <path id="shapePath3" d="M0,0 Z" style="stroke:#000000;stroke-opacity:1;stroke-width:0;stroke-linejoin:miter;stroke-miterlimit:2;stroke-linecap:butt;fill-rule:evenodd;fill:#efefef;fill-opacity:1;"/>
        </g>
        <g id="Shape4">
            <desc shapeID="4" type="0" basicInfo-basicType="0" basicInfo-roundedRectRadius="12" basicInfo-polygonSides="6" basicInfo-starPoints="5" bounding="rect(-58.635,-23.74,117.27,47.48)" text="Games of&#10;the Month" font-familyName="Hiragino Kaku Gothic StdN" font-pixelSize="20" font-bold="1" font-underline="0" font-alignment="0" strokeStyle="0" markerStart="0" markerEnd="0" shadowEnabled="0" shadowOffsetX="0" shadowOffsetY="2" shadowBlur="4" shadowOpacity="160" blurEnabled="0" blurRadius="4" transform="matrix(1,0,0,1,120.275,31.4538)" pers-center="0,0" pers-size="0,0" pers-start="0,0" pers-end="0,0" locked="0" mesh="" flag=""/>
            <path id="shapePath4" d="M73.4,18.6338 L73.4,20.9137 C72.42,21.4137 71.56,21.6338 70.5,21.6338 C69.24,21.6338 68.26,21.2537 67.62,20.5537 C66.82,19.6737 66.4,18.2337 66.4,16.3737 C66.4,13.0138 67.8,11.1537 70.36,11.1537 C71.2,11.1537 71.86,11.3538 72.38,11.7738 C72.82,12.1138 73.06,12.4937 73.28,13.2138 L77.36,12.2738 C77.04,11.3137 76.72,10.7138 76.18,10.0938 C74.86,8.49375 72.96,7.71375 70.46,7.71375 C65.42,7.71375 62.24,11.0537 62.24,16.3138 C62.24,19.0537 63.08,21.4338 64.6,22.9538 C66.02,24.3937 68,25.0938 70.54,25.0938 C72.02,25.0938 73.48,24.8538 74.78,24.4137 C75.68,24.1138 76.22,23.8538 77.32,23.1538 C77.2,22.2337 77.18,21.5938 77.18,20.1737 L77.18,17.9338 C77.18,16.6338 77.22,15.9737 77.32,15.2138 C76.44,15.2938 75.7,15.3137 74.68,15.3137 L73.08,15.3137 C71.68,15.3137 71.2,15.2938 70.46,15.1938 L70.46,18.7337 C71.08,18.6538 71.42,18.6338 72.44,18.6338 L73.4,18.6338 M87.3925,16.8138 C85.9525,16.8538 85.3525,16.8737 84.5725,16.9538 C82.7725,17.1138 81.4325,17.5337 80.4125,18.2537 C79.4525,18.9137 78.9525,19.9137 78.9525,21.1737 C78.9525,22.2738 79.3325,23.2337 80.0525,23.8937 C80.8525,24.6338 81.9925,24.9937 83.5125,24.9937 C85.1525,24.9937 86.2725,24.6537 87.3925,23.7938 L87.3925,24.7137 L91.2725,24.7137 C91.1725,23.8138 91.1325,23.0938 91.1325,21.8737 L91.1325,16.4738 C91.1325,14.6737 90.5725,13.5737 89.2925,12.8738 C88.5125,12.4538 87.0725,12.1737 85.5925,12.1737 C83.6525,12.1737 82.1725,12.5537 81.0925,13.3137 C80.2525,13.9137 79.8125,14.5537 79.4125,15.7337 L83.2325,16.3538 C83.5325,15.3738 84.2125,14.9538 85.4925,14.9538 C86.8125,14.9538 87.3925,15.3937 87.3925,16.3538 L87.3925,16.8138 M87.3925,19.9338 C87.3925,20.5337 87.1325,21.0737 86.6725,21.4738 C86.1325,21.9338 85.2325,22.2337 84.4125,22.2337 C83.3725,22.2337 82.7725,21.8138 82.7725,21.0938 C82.7725,20.5138 83.2125,20.0138 83.9325,19.7738 C84.7525,19.5138 85.6125,19.4137 87.3925,19.3737 L87.3925,19.9338 M97.5081,24.7137 C97.3881,23.7337 97.3481,22.9538 97.3481,21.6938 L97.3481,17.6538 C97.9081,16.2938 98.8281,15.5138 99.9081,15.5138 C100.388,15.5138 100.788,15.6938 101.008,16.0138 C101.268,16.3538 101.348,16.7337 101.348,17.5737 L101.348,21.6938 C101.348,22.9738 101.308,23.8138 101.188,24.7137 L105.348,24.7137 C105.228,23.7537 105.188,22.9137 105.188,21.7137 L105.188,17.6338 C105.688,16.2938 106.608,15.4937 107.628,15.4937 C108.768,15.4937 109.208,16.0737 109.208,17.5737 L109.208,21.6938 C109.208,23.0537 109.168,23.7738 109.048,24.7137 L113.208,24.7137 C113.088,23.7738 113.048,22.9538 113.048,21.7137 L113.048,16.7537 C113.048,13.7337 111.588,12.1737 108.728,12.1737 C106.988,12.1737 105.768,12.6938 104.528,13.9137 C104.268,13.4137 104.068,13.1737 103.708,12.9137 C103.048,12.4338 102.188,12.1938 101.148,12.1938 C99.5681,12.1938 98.3481,12.7138 97.3281,13.8337 C97.3281,13.7938 97.3281,13.7537 97.3281,13.7337 C97.3281,13.6737 97.3281,13.6338 97.3281,13.6338 C97.3481,13.4338 97.3481,13.4338 97.3481,13.3538 L97.3481,12.5138 L93.3881,12.5138 C93.5081,13.2938 93.5481,14.0138 93.5481,15.5338 L93.5481,21.6938 C93.5481,22.9538 93.5081,23.7938 93.3881,24.7137 L97.5081,24.7137 M127.439,19.7337 C127.419,19.5337 127.419,19.4137 127.419,19.3337 C127.359,18.1938 127.279,17.3538 127.119,16.7137 C126.419,13.7337 124.239,12.0338 121.119,12.0338 C117.299,12.0338 114.759,14.6537 114.759,18.6138 C114.759,20.5938 115.399,22.2938 116.579,23.4937 C117.719,24.6338 119.259,25.1938 121.219,25.1938 C123.199,25.1938 124.799,24.6138 125.939,23.4937 C126.499,22.9338 126.799,22.4738 127.259,21.4338 L123.779,20.4538 C123.619,20.9738 123.479,21.1938 123.179,21.4738 C122.659,21.9538 121.959,22.2137 121.159,22.2137 C119.579,22.2137 118.639,21.3538 118.439,19.7337 L127.439,19.7337 M118.499,16.9738 C118.839,15.6537 119.699,15.0138 121.119,15.0138 C122.499,15.0138 123.359,15.6938 123.639,16.9738 L118.499,16.9738 M128.569,21.0737 C128.769,22.0337 128.969,22.5138 129.369,23.0737 C130.329,24.3937 132.109,25.0737 134.629,25.0737 C136.769,25.0737 138.409,24.5737 139.369,23.6138 C140.029,22.9738 140.389,22.0138 140.389,20.9538 C140.389,19.5138 139.769,18.5337 138.469,17.8937 C137.769,17.5337 137.149,17.3538 135.189,16.9338 C133.209,16.4937 132.789,16.2938 132.789,15.7537 C132.789,15.2337 133.429,14.8937 134.469,14.8937 C135.549,14.8937 136.049,15.2537 136.149,16.0737 L140.009,15.6537 C139.689,14.5338 139.369,13.9538 138.709,13.3738 C137.769,12.5138 136.349,12.0938 134.449,12.0938 C131.109,12.0938 129.089,13.5537 129.089,15.9538 C129.089,16.6338 129.269,17.3138 129.589,17.8538 C129.969,18.4538 130.629,18.9137 131.589,19.2738 C132.249,19.4937 133.029,19.6938 134.549,19.9937 C135.649,20.2137 135.909,20.2938 136.189,20.4538 C136.469,20.6138 136.629,20.8737 136.629,21.1737 C136.629,21.7938 135.949,22.1338 134.749,22.1338 C133.409,22.1338 132.729,21.6737 132.529,20.6338 L128.569,21.0737 M154.823,25.1737 C158.803,25.1737 161.443,22.5337 161.443,18.5537 C161.443,14.5938 158.883,12.0537 154.843,12.0537 C150.803,12.0537 148.243,14.5938 148.243,18.5938 C148.243,22.6138 150.803,25.1737 154.823,25.1737 M154.863,15.0537 C156.563,15.0537 157.583,16.3737 157.583,18.6138 C157.583,20.8337 156.583,22.1338 154.843,22.1338 C153.103,22.1338 152.063,20.7938 152.063,18.5737 C152.063,16.3737 153.103,15.0537 154.863,15.0537 M164.94,15.5938 L164.94,21.6938 C164.94,22.9937 164.9,23.7337 164.78,24.7137 L168.94,24.7137 C168.82,23.7337 168.78,23.0737 168.78,21.6938 L168.78,15.5938 L169.4,15.5938 C170.52,15.5938 171.18,15.6338 172.02,15.7337 L172.02,12.3738 C171.28,12.4538 170.2,12.5138 169.36,12.5138 L168.78,12.5138 L168.78,12.0138 C168.78,10.9737 169.16,10.5737 170.14,10.5737 C170.9,10.5737 171.5,10.7337 172.12,11.0737 L172.74,8.13375 C171.64,7.83375 170.82,7.71375 169.7,7.71375 C166.44,7.71375 164.94,8.93375 164.94,11.5737 L164.94,12.5138 L164.4,12.5138 C163.64,12.5138 162.72,12.4538 162.16,12.3738 L162.16,15.7337 C162.84,15.6338 163.46,15.5938 164.4,15.5938 L164.94,15.5938 M64.14,42.5137 L63.42,42.5137 C62.72,42.5137 62.22,42.4738 61.64,42.3937 L61.64,45.7337 C62.22,45.6538 62.74,45.6138 63.38,45.6138 L64.14,45.6138 L64.14,51.7337 C64.14,53.0938 64.42,53.7738 65.18,54.3538 C65.82,54.8337 66.76,55.0537 68.12,55.0537 C69.2,55.0537 69.98,54.9338 70.88,54.6537 L70.58,51.6138 C70.08,51.8737 69.7,51.9737 69.18,51.9737 C68.8,51.9737 68.48,51.8937 68.26,51.7537 C68,51.5737 67.9,51.2938 67.9,50.7337 L67.9,45.6138 L68.74,45.6138 C69.46,45.6138 69.98,45.6538 70.58,45.7337 L70.58,42.4137 C69.96,42.4938 69.5,42.5137 68.62,42.5137 L67.9,42.5137 L67.9,42.0938 C67.9,41.1338 67.96,40.1738 68.06,39.3538 L63.98,39.3538 C64.1,40.2938 64.14,41.0938 64.14,42.0938 L64.14,42.5137 M76.2781,54.7138 C76.1581,53.6738 76.1181,52.8337 76.1181,51.6937 L76.1181,47.6338 C76.9181,46.3138 77.9981,45.5537 79.1381,45.5537 C79.6981,45.5537 80.1381,45.7337 80.4181,46.0938 C80.6581,46.4338 80.7381,46.7938 80.7381,47.5938 L80.7381,51.6937 C80.7381,52.9137 80.6981,53.7537 80.5781,54.7138 L84.7381,54.7138 C84.6381,53.8737 84.5781,52.8737 84.5781,51.7138 L84.5781,46.6937 C84.5781,45.1138 84.2381,44.1338 83.4381,43.3337 C82.6981,42.5938 81.6181,42.2137 80.2581,42.2137 C78.5581,42.2137 77.2981,42.7137 76.0981,43.8737 C76.0981,43.6937 76.1181,43.3737 76.1181,43.2137 L76.1181,41.0938 C76.1181,39.6738 76.1581,38.9538 76.2781,38.0737 L72.1381,38.0737 C72.2581,38.8538 72.2981,39.7137 72.2981,41.0938 L72.2981,51.6937 C72.2981,52.9338 72.2581,53.7738 72.1381,54.7138 L76.2781,54.7138 M98.97,49.7337 C98.95,49.5338 98.95,49.4137 98.95,49.3337 C98.89,48.1937 98.81,47.3538 98.65,46.7137 C97.95,43.7337 95.77,42.0337 92.65,42.0337 C88.83,42.0337 86.29,44.6538 86.29,48.6138 C86.29,50.5938 86.93,52.2938 88.11,53.4938 C89.25,54.6338 90.79,55.1937 92.75,55.1937 C94.73,55.1937 96.33,54.6138 97.47,53.4938 C98.03,52.9338 98.33,52.4737 98.79,51.4338 L95.31,50.4538 C95.15,50.9737 95.01,51.1937 94.71,51.4737 C94.19,51.9538 93.49,52.2138 92.69,52.2138 C91.11,52.2138 90.17,51.3538 89.97,49.7337 L98.97,49.7337 M90.03,46.9738 C90.37,45.6538 91.23,45.0137 92.65,45.0137 C94.03,45.0137 94.89,45.6937 95.17,46.9738 L90.03,46.9738 M118.156,54.7138 C118.256,54.0737 118.516,53.1937 119.016,51.7738 L120.956,46.2938 C121.216,45.5737 121.416,44.8538 121.856,43.2938 C121.836,43.5938 121.836,43.5938 121.776,44.6538 C121.736,45.2738 121.676,46.7738 121.676,47.2537 L121.676,51.6138 C121.676,53.0338 121.636,53.7938 121.516,54.7138 L125.456,54.7138 C125.336,53.9137 125.296,53.1338 125.296,51.6138 L125.296,41.1937 C125.296,39.8538 125.336,39.0337 125.456,38.0737 L120.156,38.0737 C120.036,38.9137 119.876,39.5537 119.416,40.8937 L116.436,49.5137 L113.436,40.8937 C112.976,39.5737 112.816,38.9338 112.676,38.0737 L107.396,38.0737 C107.496,38.9338 107.556,39.9938 107.556,41.1937 L107.556,51.6138 C107.556,52.9737 107.516,53.8138 107.396,54.7138 L111.336,54.7138 C111.216,53.8737 111.176,52.9938 111.176,51.6138 L111.176,47.2738 C111.176,46.2137 111.096,44.5737 110.976,43.3138 C111.076,43.5938 111.076,43.5938 111.296,44.3138 C111.356,44.4738 111.956,46.3337 111.976,46.4338 L113.816,51.7537 C114.356,53.2738 114.576,54.0137 114.676,54.7138 L118.156,54.7138 M133.823,55.1738 C137.803,55.1738 140.443,52.5338 140.443,48.5537 C140.443,44.5938 137.883,42.0537 133.843,42.0537 C129.803,42.0537 127.243,44.5938 127.243,48.5938 C127.243,52.6138 129.803,55.1738 133.823,55.1738 M133.863,45.0537 C135.563,45.0537 136.583,46.3737 136.583,48.6138 C136.583,50.8337 135.583,52.1338 133.843,52.1338 C132.103,52.1338 131.063,50.7938 131.063,48.5737 C131.063,46.3737 132.103,45.0537 133.863,45.0537 M146.2,54.7138 C146.08,53.6738 146.04,52.8337 146.04,51.6937 L146.04,47.6538 C146.9,46.2537 147.9,45.5537 149.02,45.5537 C149.62,45.5537 150.08,45.7537 150.34,46.1138 C150.58,46.4538 150.66,46.7938 150.66,47.5938 L150.66,51.6937 C150.66,52.9137 150.62,53.7537 150.5,54.7138 L154.66,54.7138 C154.56,53.8737 154.5,52.8737 154.5,51.7138 L154.5,46.6937 C154.5,45.1138 154.16,44.1338 153.36,43.3337 C152.62,42.5938 151.52,42.2137 150.14,42.2137 C148.5,42.2137 147.28,42.7137 146.02,43.9137 C146.02,43.7738 146.04,43.4738 146.04,43.3538 L146.04,42.5137 L142.06,42.5137 C142.18,43.3138 142.22,44.1538 142.22,45.5337 L142.22,51.6937 C142.22,52.9338 142.18,53.7738 142.06,54.7138 L146.2,54.7138 M158.312,42.5137 L157.592,42.5137 C156.892,42.5137 156.392,42.4738 155.812,42.3937 L155.812,45.7337 C156.392,45.6538 156.912,45.6138 157.552,45.6138 L158.312,45.6138 L158.312,51.7337 C158.312,53.0938 158.592,53.7738 159.352,54.3538 C159.992,54.8337 160.932,55.0537 162.292,55.0537 C163.372,55.0537 164.152,54.9338 165.052,54.6537 L164.752,51.6138 C164.252,51.8737 163.872,51.9737 163.352,51.9737 C162.972,51.9737 162.652,51.8937 162.432,51.7537 C162.172,51.5737 162.072,51.2938 162.072,50.7337 L162.072,45.6138 L162.912,45.6138 C163.632,45.6138 164.152,45.6538 164.752,45.7337 L164.752,42.4137 C164.132,42.4938 163.672,42.5137 162.792,42.5137 L162.072,42.5137 L162.072,42.0938 C162.072,41.1338 162.132,40.1738 162.232,39.3538 L158.152,39.3538 C158.272,40.2938 158.312,41.0938 158.312,42.0938 L158.312,42.5137 M170.45,54.7138 C170.33,53.6738 170.29,52.8337 170.29,51.6937 L170.29,47.6338 C171.09,46.3138 172.17,45.5537 173.31,45.5537 C173.87,45.5537 174.31,45.7337 174.59,46.0938 C174.83,46.4338 174.91,46.7938 174.91,47.5938 L174.91,51.6937 C174.91,52.9137 174.87,53.7537 174.75,54.7138 L178.91,54.7138 C178.81,53.8737 178.75,52.8737 178.75,51.7138 L178.75,46.6937 C178.75,45.1138 178.41,44.1338 177.61,43.3337 C176.87,42.5938 175.79,42.2137 174.43,42.2137 C172.73,42.2137 171.47,42.7137 170.27,43.8737 C170.27,43.6937 170.29,43.3737 170.29,43.2137 L170.29,41.0938 C170.29,39.6738 170.33,38.9538 170.45,38.0737 L166.31,38.0737 C166.43,38.8538 166.47,39.7137 166.47,41.0938 L166.47,51.6937 C166.47,52.9338 166.43,53.7738 166.31,54.7138 L170.45,54.7138 Z" style="stroke:none;fill-rule:nonzero;fill:#efefef;fill-opacity:1;"/>
        </g>
    </g>
</svg>
